<?xml version="1.0" encoding="utf-8"?>
<!-- Generated by IcoMoon.io -->
<!DOCTYPE svg PUBLIC "-//W3C//DTD SVG 1.1//EN" "http://www.w3.org/Graphics/SVG/1.1/DTD/svg11.dtd">
<svg version="1.1" xmlns="http://www.w3.org/2000/svg" xmlns:xlink="http://www.w3.org/1999/xlink" width="16" height="16" viewBox="0 0 16 16">
<g id="icomoon-ignore">
	<line stroke-width="1" x1="" y1="" x2="" y2="" stroke="#449FDB" opacity=""></line>
</g>
	<path d="M9 8.586l1.707 1.707-1.414 1.414-2.293-2.293v-3.414h2zM13 1c1.657 0 3 1.343 3 3 0 1.015-0.505 1.913-1.276 2.456-0.728-1.923-2.257-3.451-4.179-4.179 0.543-0.772 1.44-1.276 2.456-1.276zM5.456 2.276c-1.923 0.728-3.451 2.257-4.179 4.179-0.772-0.543-1.276-1.44-1.276-2.456 0-1.657 1.343-3 3-3 1.015 0 1.913 0.505 2.456 1.276zM8 3c-3.314 0-6 2.686-6 6 0 1.448 0.513 2.776 1.367 3.813l-0.367 3.187h1l1-1.803c0.883 0.511 1.907 0.803 3 0.803s2.117-0.292 3-0.803l-0 0 1 1.803h1l-0.367-3.187c0.854-1.037 1.367-2.365 1.367-3.813 0-3.314-2.686-6-6-6zM8 13c-2.209 0-4-1.791-4-4s1.791-4 4-4 4 1.791 4 4-1.791 4-4 4z" fill="#000000"></path>
</svg>
