<?xml version="1.0" encoding="utf-8"?>
<!-- Generated by IcoMoon.io -->
<!DOCTYPE svg PUBLIC "-//W3C//DTD SVG 1.1//EN" "http://www.w3.org/Graphics/SVG/1.1/DTD/svg11.dtd">
<svg version="1.1" xmlns="http://www.w3.org/2000/svg" xmlns:xlink="http://www.w3.org/1999/xlink" width="16" height="16" viewBox="0 0 16 16">
<g id="icomoon-ignore">
	<line stroke-width="1" x1="" y1="" x2="" y2="" stroke="#449FDB" opacity=""></line>
</g>
	<path d="M13.5 5c-0.55 0-1 0.45-1 1v4c0 0.55 0.45 1 1 1s1-0.45 1-1v-4c0-0.55-0.45-1-1-1zM1.5 5c-0.55 0-1 0.45-1 1v4c0 0.55 0.45 1 1 1s1-0.45 1-1v-4c0-0.55-0.45-1-1-1zM3 11.5c0 0.828 0.672 1.5 1.5 1.5h0.5v2c0 0.55 0.45 1 1 1s1-0.45 1-1v-2h1v2c0 0.55 0.45 1 1 1s1-0.45 1-1v-2h0.5c0.828 0 1.5-0.672 1.5-1.5v-5.5h-9v5.5zM9.353 1.398l0.633-1.216c0.032-0.061 0.008-0.137-0.053-0.169s-0.137-0.008-0.169 0.053l-0.642 1.234c-0.503-0.195-1.050-0.301-1.622-0.301s-1.119 0.107-1.622 0.301l-0.642-1.234c-0.032-0.061-0.108-0.085-0.169-0.053s-0.085 0.108-0.053 0.169l0.633 1.216c-1.416 0.641-2.441 1.994-2.619 3.602h8.944c-0.178-1.608-1.203-2.961-2.619-3.602zM5.5 4.225c-0.4 0-0.725-0.325-0.725-0.725s0.325-0.725 0.725-0.725 0.725 0.325 0.725 0.725c-0 0.4-0.325 0.725-0.725 0.725zM9.5 4.225c-0.4 0-0.725-0.325-0.725-0.725s0.325-0.725 0.725-0.725 0.725 0.325 0.725 0.725c0 0.4-0.325 0.725-0.725 0.725z" fill="#000000"></path>
</svg>
