<?xml version="1.0" encoding="utf-8"?>
<!-- Generated by IcoMoon.io -->
<!DOCTYPE svg PUBLIC "-//W3C//DTD SVG 1.1//EN" "http://www.w3.org/Graphics/SVG/1.1/DTD/svg11.dtd">
<svg version="1.1" xmlns="http://www.w3.org/2000/svg" xmlns:xlink="http://www.w3.org/1999/xlink" width="16" height="16" viewBox="0 0 16 16">
<g id="icomoon-ignore">
	<line stroke-width="1" x1="" y1="" x2="" y2="" stroke="#449FDB" opacity=""></line>
</g>
	<path d="M0 8c0 4.418 3.582 8 8 8s8-3.582 8-8-3.582-8-8-8c-4.418 0-8 3.582-8 8zM14 8c0 1.144-0.32 2.214-0.876 3.124l-8.247-8.247c0.91-0.556 1.979-0.876 3.124-0.876 3.314 0 6 2.686 6 6zM2 8c0-1.144 0.321-2.214 0.876-3.124l8.247 8.247c-0.91 0.556-1.979 0.876-3.124 0.876-3.314 0-6-2.686-6-6z" fill="#000000"></path>
</svg>
