<?xml version="1.0" encoding="utf-8"?>
<!-- Generated by IcoMoon.io -->
<!DOCTYPE svg PUBLIC "-//W3C//DTD SVG 1.1//EN" "http://www.w3.org/Graphics/SVG/1.1/DTD/svg11.dtd">
<svg version="1.1" xmlns="http://www.w3.org/2000/svg" xmlns:xlink="http://www.w3.org/1999/xlink" width="16" height="16" viewBox="0 0 16 16">
<g id="icomoon-ignore">
	<line stroke-width="1" x1="" y1="" x2="" y2="" stroke="#449FDB" opacity=""></line>
</g>
	<path d="M6 3c3.866 0 7 3.134 7 7h-1.5c0-1.469-0.572-2.85-1.611-3.889s-2.42-1.611-3.889-1.611v-1.5zM6 0c5.523 0 10 4.477 10 10h-1.5c0-1.148-0.225-2.261-0.667-3.308-0.428-1.012-1.041-1.921-1.822-2.702s-1.69-1.394-2.702-1.822c-1.047-0.443-2.16-0.667-3.308-0.667v-1.5zM8.975 7.025c0.684 0.684 1.025 1.58 1.025 2.476-0.999 1.5-0.999 3.499-0.999 3.499-4 0-7 3-7 3l-0.58-0.58 4.431-4.431c0.049 0.007 0.098 0.011 0.149 0.011 0.552 0 1-0.448 1-1s-0.448-1-1-1c-0.552 0-1 0.448-1 1 0 0.051 0.004 0.101 0.011 0.149l-4.431 4.431-0.58-0.58c0 0 3-3 3-7 0 0 2 0 3.5-1 0.896 0 1.791 0.342 2.475 1.025z" fill="#000000"></path>
</svg>
