<?xml version="1.0" encoding="utf-8"?>
<!-- Generated by IcoMoon.io -->
<!DOCTYPE svg PUBLIC "-//W3C//DTD SVG 1.1//EN" "http://www.w3.org/Graphics/SVG/1.1/DTD/svg11.dtd">
<svg version="1.1" xmlns="http://www.w3.org/2000/svg" xmlns:xlink="http://www.w3.org/1999/xlink" width="16" height="16" viewBox="0 0 16 16">
<g id="icomoon-ignore">
	<line stroke-width="1" x1="" y1="" x2="" y2="" stroke="#449FDB" opacity=""></line>
</g>
	<path d="M13.334 0h-10.667c-1.473 0-2.666 1.194-2.666 2.667v10.666c0 1.473 1.194 2.667 2.666 2.667h10.667c1.473 0 2.666-1.194 2.666-2.667l0-10.666c0-1.473-1.194-2.667-2.666-2.667zM14 10.127c0 2.14-1.742 3.873-3.898 3.873h-4.2c-2.154 0-3.902-1.733-3.902-3.873v-4.252c0.002-2.141 1.748-3.875 3.902-3.875h1.967c2.155 0 3.881 1.609 3.881 3.75 0.028 0.401 0.389 0.75 0.801 0.75h0.673c0.431 0 0.776 0.452 0.776 0.88v2.747zM11 10c0 0.55-0.45 1-1 1h-4c-0.55 0-1-0.45-1-1v0c0-0.55 0.45-1 1-1h4c0.55 0 1 0.45 1 1v0zM9 6c0 0.55-0.45 1-1 1h-2c-0.55 0-1-0.45-1-1v0c0-0.55 0.45-1 1-1h2c0.55 0 1 0.45 1 1v0z" fill="#000000"></path>
</svg>
