<?xml version="1.0" encoding="utf-8"?>
<!-- Generated by IcoMoon.io -->
<!DOCTYPE svg PUBLIC "-//W3C//DTD SVG 1.1//EN" "http://www.w3.org/Graphics/SVG/1.1/DTD/svg11.dtd">
<svg version="1.1" xmlns="http://www.w3.org/2000/svg" xmlns:xlink="http://www.w3.org/1999/xlink" width="16" height="16" viewBox="0 0 16 16">
<g id="icomoon-ignore">
	<line stroke-width="1" x1="" y1="" x2="" y2="" stroke="#449FDB" opacity=""></line>
</g>
	<path d="M13.313 0h-10.625c-1.478 0-2.688 1.209-2.688 2.688v10.625c0 1.478 1.209 2.688 2.688 2.688h10.625c1.478 0 2.688-1.209 2.688-2.688v-10.625c0-1.478-1.209-2.688-2.688-2.688zM15 12h-6v-3.688c0 0 1.099 0.016 1.688 0.625v1.063h2.413c-0.185-0.592-0.579-1.174-1.143-1.667-0.968-0.847-2.55-1.271-3.958-1.271v4.938h-7v-1.5c0-0.678 0.229-1.352 0.662-1.949 0.384-0.53 0.92-0.997 1.592-1.389 0.788-0.46 1.728-0.792 2.747-0.981v-2.18h2v2c2.297 0 3.463 0.412 4.747 1.161 0.672 0.392 1.207 0.859 1.592 1.389 0.433 0.597 0.662 1.271 0.662 1.949v1.5zM3.119 10c0.185-0.592 0.579-1.174 1.143-1.667 0.493-0.431 1.088-0.769 1.739-0.996v2.663h-2.881z" fill="#000000"></path>
</svg>
