<?xml version="1.0" encoding="utf-8"?>
<!-- Generated by IcoMoon.io -->
<!DOCTYPE svg PUBLIC "-//W3C//DTD SVG 1.1//EN" "http://www.w3.org/Graphics/SVG/1.1/DTD/svg11.dtd">
<svg version="1.1" xmlns="http://www.w3.org/2000/svg" xmlns:xlink="http://www.w3.org/1999/xlink" width="16" height="16" viewBox="0 0 16 16">
<g id="icomoon-ignore">
	<line stroke-width="1" x1="" y1="" x2="" y2="" stroke="#449FDB" opacity=""></line>
</g>
	<path d="M8.779 6.359c-0.61-0.036-1.314 0.001-2.129 0.14l1.88 3.389 7.47-2.051c-0.081-0.192-0.198-0.379-0.354-0.559-0.773-0.895-2.449-1.693-4.275-2.053l0-0c-1.791-0.42-3.731-0.402-5.718-0.102-0.072 0.011-0.143 0.022-0.214 0.034l-0.66-1.223c-0.643 0.086-1.247 0.22-1.806 0.398l0.629 1.316c-1.027 0.398-1.871 0.965-2.479 1.647-1.003 1.142-1.4 2.577-0.918 3.974 0.097 0.282 0.228 0.549 0.39 0.8l7.47-2.052-2.074-3.841c0.071-0.014 0.144-0.028 0.218-0.041 3.354-0.598 5.189 0.326 6.194 1.31l-2.556 0.62-1.067-1.704zM2.73 9.787c-0.231-1.052-0.047-2.227 1.413-3.009l1.143 2.39-2.555 0.619z" fill="#000000"></path>
</svg>
