<?xml version="1.0" encoding="utf-8"?>
<!-- Generated by IcoMoon.io -->
<!DOCTYPE svg PUBLIC "-//W3C//DTD SVG 1.1//EN" "http://www.w3.org/Graphics/SVG/1.1/DTD/svg11.dtd">
<svg version="1.1" xmlns="http://www.w3.org/2000/svg" xmlns:xlink="http://www.w3.org/1999/xlink" width="16" height="16" viewBox="0 0 16 16">
<g id="icomoon-ignore">
	<line stroke-width="1" x1="" y1="" x2="" y2="" stroke="#449FDB" opacity=""></line>
</g>
	<path d="M8 16c-4.411 0-8-3.589-8-8s3.589-8 8-8c4.411 0 8 3.589 8 8s-3.589 8-8 8zM14.747 9.095c-0.234-0.074-2.115-0.635-4.256-0.292 0.894 2.456 1.257 4.456 1.327 4.872 1.533-1.037 2.624-2.679 2.929-4.58zM10.669 14.301c-0.102-0.6-0.498-2.689-1.458-5.182-0.015 0.005-0.030 0.010-0.045 0.015-3.854 1.343-5.238 4.016-5.361 4.267 1.159 0.903 2.615 1.442 4.194 1.442 0.947 0 1.849-0.194 2.669-0.543zM2.923 12.579c0.155-0.265 2.030-3.37 5.554-4.509 0.089-0.029 0.179-0.056 0.269-0.081-0.172-0.388-0.358-0.777-0.554-1.16-3.412 1.021-6.724 0.979-7.023 0.972-0.002 0.069-0.003 0.139-0.003 0.209 0 1.755 0.665 3.357 1.757 4.569zM1.311 6.611c0.306 0.004 3.121 0.016 6.317-0.833-1.132-2.013-2.353-3.705-2.533-3.952-1.912 0.902-3.341 2.664-3.784 4.784zM6.399 1.367c0.189 0.253 1.43 1.943 2.55 4 2.43-0.911 3.458-2.293 3.581-2.468-1.207-1.071-2.793-1.722-4.53-1.722-0.551 0-1.088 0.066-1.601 0.19zM13.289 3.689c-0.144 0.195-1.289 1.663-3.816 2.694 0.159 0.325 0.311 0.657 0.453 0.99 0.050 0.118 0.099 0.236 0.147 0.353 2.274-0.286 4.533 0.172 4.758 0.22-0.015-1.613-0.591-3.094-1.543-4.257z" fill="#000000"></path>
</svg>
