<?xml version="1.0" encoding="utf-8"?>
<!-- Generated by IcoMoon.io -->
<!DOCTYPE svg PUBLIC "-//W3C//DTD SVG 1.1//EN" "http://www.w3.org/Graphics/SVG/1.1/DTD/svg11.dtd">
<svg version="1.1" xmlns="http://www.w3.org/2000/svg" xmlns:xlink="http://www.w3.org/1999/xlink" width="16" height="16" viewBox="0 0 16 16">
<g id="icomoon-ignore">
	<line stroke-width="1" x1="" y1="" x2="" y2="" stroke="#449FDB" opacity=""></line>
</g>
	<path d="M13.999 9.898c-0-0.011-0-0.022-0.001-0.033-0.001-0.022-0.001-0.045-0.002-0.067-0.157-4.932-5.997-9.799-5.997-9.799s-5.84 4.867-5.997 9.799c-0.001 0.022-0.001 0.045-0.002 0.067-0 0.011-0 0.022-0.001 0.033-0.001 0.034-0.001 0.068-0.001 0.101 0 0.037 0 0.074 0.001 0.111 0 0.003 0 0.006 0 0.009 0.064 3.258 2.725 5.88 5.999 5.88s5.935-2.622 5.999-5.88c0-0.003 0-0.006 0-0.009 0.001-0.037 0.001-0.074 0.001-0.111 0-0.034-0-0.068-0.001-0.102zM11.999 10.074l-0 0.006c-0.021 1.051-0.446 2.036-1.197 2.774s-1.747 1.145-2.802 1.145c-0.195 0-0.387-0.014-0.577-0.041 2.173-1.294 3.628-3.667 3.628-6.38 0-0.304-0.018-0.604-0.054-0.898 0.629 1.155 0.97 2.231 1 3.182l0 0.002c0.001 0.015 0.001 0.030 0.001 0.044l0 0.023c0 0.023 0.001 0.046 0.001 0.068 0 0.025-0 0.049-0.001 0.074z" fill="#000000"></path>
</svg>
