<?xml version="1.0" encoding="utf-8"?>
<!-- Generated by IcoMoon.io -->
<!DOCTYPE svg PUBLIC "-//W3C//DTD SVG 1.1//EN" "http://www.w3.org/Graphics/SVG/1.1/DTD/svg11.dtd">
<svg version="1.1" xmlns="http://www.w3.org/2000/svg" xmlns:xlink="http://www.w3.org/1999/xlink" width="16" height="16" viewBox="0 0 16 16">
<g id="icomoon-ignore">
	<line stroke-width="1" x1="" y1="" x2="" y2="" stroke="#449FDB" opacity=""></line>
</g>
	<path d="M13.114 4.631c1.213 0.86 2.209 2.017 2.886 3.369-1.486 2.968-4.511 5-8 5-0.978 0-1.919-0.16-2.8-0.454l1.218-1.218c0.517 0.114 1.046 0.172 1.582 0.172 1.399 0 2.763-0.398 3.944-1.152 0.94-0.6 1.737-1.403 2.335-2.348-0.579-0.915-1.344-1.696-2.245-2.289l1.080-1.079zM8 10.906c-0.355 0-0.699-0.046-1.027-0.133l4.894-4.894c0.087 0.328 0.133 0.672 0.133 1.027 0 2.209-1.791 4-4 4zM15 0h-0.84l-3.431 3.431c-0.861-0.28-1.777-0.431-2.729-0.431-3.489 0-6.514 2.032-8 5 0.667 1.331 1.643 2.474 2.831 3.329l-2.831 2.831v0.84h0.84l14.16-14.16v-0.84zM6.5 4.906c0.751 0 1.373 0.551 1.483 1.271l-1.711 1.711c-0.72-0.11-1.271-0.732-1.271-1.483 0-0.828 0.672-1.5 1.5-1.5zM1.721 8c0.598-0.946 1.395-1.749 2.335-2.348 0.061-0.039 0.123-0.077 0.185-0.114-0.156 0.427-0.241 0.888-0.241 1.369 0 0.914 0.307 1.757 0.823 2.431l-0.915 0.915c-0.876-0.588-1.621-1.356-2.188-2.252z" fill="#000000"></path>
</svg>
