<?xml version="1.0" encoding="utf-8"?>
<!-- Generated by IcoMoon.io -->
<!DOCTYPE svg PUBLIC "-//W3C//DTD SVG 1.1//EN" "http://www.w3.org/Graphics/SVG/1.1/DTD/svg11.dtd">
<svg version="1.1" xmlns="http://www.w3.org/2000/svg" xmlns:xlink="http://www.w3.org/1999/xlink" width="16" height="16" viewBox="0 0 16 16">
<g id="icomoon-ignore">
	<line stroke-width="1" x1="" y1="" x2="" y2="" stroke="#449FDB" opacity=""></line>
</g>
	<path d="M13.334 0h-10.667c-1.467 0-2.667 1.2-2.667 2.667v10.666c0 1.468 1.2 2.667 2.667 2.667l10.667-0c1.467 0 2.666-1.199 2.666-2.667v-10.666c0-1.467-1.2-2.667-2.666-2.667zM13.603 8h-2.603v7h-3v-7h-1.446v-2.29h1.446v-1.487c0-2.021 0.872-3.223 3.248-3.223h2.738v2.478h-2.236c-0.664-0.001-0.746 0.346-0.746 0.992l-0.004 1.24h3l-0.397 2.29z" fill="#000000"></path>
</svg>
