<?xml version="1.0" encoding="utf-8"?>
<!-- Generated by IcoMoon.io -->
<!DOCTYPE svg PUBLIC "-//W3C//DTD SVG 1.1//EN" "http://www.w3.org/Graphics/SVG/1.1/DTD/svg11.dtd">
<svg version="1.1" xmlns="http://www.w3.org/2000/svg" xmlns:xlink="http://www.w3.org/1999/xlink" width="16" height="16" viewBox="0 0 16 16">
<g id="icomoon-ignore">
	<line stroke-width="1" x1="" y1="" x2="" y2="" stroke="#449FDB" opacity=""></line>
</g>
	<path d="M13.333 0h-10.666c-1.467 0-2.667 1.2-2.667 2.667v10.666c0 1.468 1.2 2.667 2.667 2.667h10.666c1.467 0 2.667-1.199 2.667-2.667v-10.666c0-1.467-1.2-2.667-2.667-2.667zM4.359 12.988c-0.75 0-1.359-0.605-1.359-1.354 0-0.745 0.609-1.356 1.359-1.356 0.752 0 1.36 0.611 1.36 1.356-0 0.749-0.608 1.354-1.36 1.354zM7.773 13c0-1.278-0.497-2.482-1.398-3.382-0.902-0.902-2.1-1.4-3.373-1.4v-1.956c3.713 0 6.736 3.023 6.736 6.738l-1.965 0zM11.244 13c0-4.548-3.698-8.249-8.24-8.249v-1.957c5.625 0 10.202 4.58 10.202 10.206l-1.962-0z" fill="#000000"></path>
</svg>
