<?xml version="1.0" encoding="utf-8"?>
<!-- Generated by IcoMoon.io -->
<!DOCTYPE svg PUBLIC "-//W3C//DTD SVG 1.1//EN" "http://www.w3.org/Graphics/SVG/1.1/DTD/svg11.dtd">
<svg version="1.1" xmlns="http://www.w3.org/2000/svg" xmlns:xlink="http://www.w3.org/1999/xlink" width="16" height="16" viewBox="0 0 16 16">
<g id="icomoon-ignore">
	<line stroke-width="1" x1="" y1="" x2="" y2="" stroke="#449FDB" opacity=""></line>
</g>
	<path d="M8 0c-4.418 0-8 3.582-8 8s3.582 8 8 8 8-3.582 8-8-3.582-8-8-8zM5 12c-0.552 0-1-0.448-1-1s0.448-1 1-1 1 0.448 1 1-0.448 1-1 1zM7.75 12c0-2.068-1.682-3.75-3.75-3.75v-1.5c2.895 0 5.25 2.355 5.25 5.25h-1.5zM10.75 12c0-1.803-0.702-3.498-1.977-4.773s-2.97-1.977-4.773-1.977v-1.5c2.204 0 4.275 0.858 5.834 2.416s2.416 3.63 2.416 5.834h-1.5z" fill="#000000"></path>
</svg>
