<?xml version="1.0" encoding="utf-8"?>
<!-- Generated by IcoMoon.io -->
<!DOCTYPE svg PUBLIC "-//W3C//DTD SVG 1.1//EN" "http://www.w3.org/Graphics/SVG/1.1/DTD/svg11.dtd">
<svg version="1.1" xmlns="http://www.w3.org/2000/svg" xmlns:xlink="http://www.w3.org/1999/xlink" width="16" height="16" viewBox="0 0 16 16">
<g id="icomoon-ignore">
	<line stroke-width="1" x1="" y1="" x2="" y2="" stroke="#449FDB" opacity=""></line>
</g>
	<path d="M10.785 7.37c-0.948-0.448-2.156-0.538-3.044 0.095 1.080-0.103 2.265 0.076 3.049 0.893 0.75-0.861 1.939-1.022 3.015-0.933-0.898-0.596-2.082-0.516-3.019-0.054zM10.401 9.465c-1.068-0.025-2.101 0.362-2.986 0.939-1.675-0.712-3.793-0.58-5.219 0.609 0.411-0.015 0.813-0.116 1.22-0.169 1.487-0.148 3.072 0.221 4.196 1.247 0.465-0.68 1.119-1.223 1.87-1.561 0.986-0.477 2.096-0.526 3.169-0.539-0.651-0.448-1.478-0.531-2.249-0.526zM14.116 3.116l-2.232-2.232c-0.486-0.486-1.446-0.884-2.134-0.884h-7.5c-0.688 0-1.25 0.563-1.25 1.25v13.5c0 0.688 0.563 1.25 1.25 1.25h11.5c0.688 0 1.25-0.563 1.25-1.25v-9.5c0-0.688-0.398-1.648-0.884-2.134zM13.409 3.823c0.049 0.049 0.098 0.109 0.145 0.177h-2.554v-2.554c0.068 0.047 0.128 0.096 0.177 0.145l2.232 2.232zM14 14.75c0 0.136-0.114 0.25-0.25 0.25h-11.5c-0.135 0-0.25-0.114-0.25-0.25v-13.5c0-0.135 0.115-0.25 0.25-0.25h7.5c0.075 0 0.16 0.010 0.25 0.027v3.973h3.973c0.017 0.090 0.027 0.174 0.027 0.25v9.5z" fill="#000000"></path>
</svg>
