<?xml version="1.0" encoding="utf-8"?>
<!-- Generated by IcoMoon.io -->
<!DOCTYPE svg PUBLIC "-//W3C//DTD SVG 1.1//EN" "http://www.w3.org/Graphics/SVG/1.1/DTD/svg11.dtd">
<svg version="1.1" xmlns="http://www.w3.org/2000/svg" xmlns:xlink="http://www.w3.org/1999/xlink" width="16" height="16" viewBox="0 0 16 16">
<g id="icomoon-ignore">
	<line stroke-width="1" x1="" y1="" x2="" y2="" stroke="#449FDB" opacity=""></line>
</g>
	<path d="M6 9.554v-1.785c0-0.236 0.105-0.46 0.295-0.629s0.441-0.263 0.705-0.263v-0.892c-1.1 0-2 0.803-2 1.785v1.339c0 0.246-0.224 0.446-0.5 0.446h-0.5v0.892h0.5c0.276 0 0.5 0.2 0.5 0.446v1.339c0 0.981 0.9 1.785 2 1.785v-0.892c-0.265 0-0.515-0.093-0.705-0.263s-0.295-0.393-0.295-0.629v-1.785c0-0.246-0.224-0.446-0.5-0.446 0.276 0 0.5-0.2 0.5-0.446zM10 10.446v1.785c0 0.236-0.105 0.46-0.295 0.629s-0.44 0.263-0.705 0.263v0.892c1.1 0 2-0.803 2-1.785v-1.339c0-0.246 0.224-0.446 0.5-0.446h0.5v-0.892h-0.5c-0.276 0-0.5-0.2-0.5-0.446v-1.339c0-0.982-0.9-1.785-2-1.785v0.892c0.265 0 0.515 0.093 0.705 0.263s0.295 0.393 0.295 0.629v1.785c0 0.246 0.224 0.446 0.5 0.446-0.276-0-0.5 0.2-0.5 0.446zM14.116 3.116l-2.232-2.232c-0.486-0.486-1.446-0.884-2.134-0.884h-7.5c-0.688 0-1.25 0.563-1.25 1.25v13.5c0 0.688 0.563 1.25 1.25 1.25h11.5c0.688 0 1.25-0.563 1.25-1.25v-9.5c0-0.688-0.398-1.648-0.884-2.134zM13.409 3.823c0.049 0.049 0.098 0.109 0.145 0.177h-2.554v-2.554c0.068 0.047 0.128 0.096 0.177 0.145l2.232 2.232zM14 14.75c0 0.136-0.114 0.25-0.25 0.25h-11.5c-0.135 0-0.25-0.114-0.25-0.25v-13.5c0-0.135 0.115-0.25 0.25-0.25h7.5c0.075 0 0.16 0.010 0.25 0.027v3.973h3.973c0.017 0.090 0.027 0.174 0.027 0.25v9.5z" fill="#000000"></path>
</svg>
