<?xml version="1.0" encoding="utf-8"?>
<!-- Generated by IcoMoon.io -->
<!DOCTYPE svg PUBLIC "-//W3C//DTD SVG 1.1//EN" "http://www.w3.org/Graphics/SVG/1.1/DTD/svg11.dtd">
<svg version="1.1" xmlns="http://www.w3.org/2000/svg" xmlns:xlink="http://www.w3.org/1999/xlink" width="16" height="16" viewBox="0 0 16 16">
<g id="icomoon-ignore">
	<line stroke-width="1" x1="" y1="" x2="" y2="" stroke="#449FDB" opacity=""></line>
</g>
	<path d="M13.939 2.939l-1.879-1.879c-0.583-0.583-1.736-1.061-2.561-1.061h-7c-0.825 0-1.5 0.675-1.5 1.5v13c0 0.825 0.675 1.5 1.5 1.5h11c0.825 0 1.5-0.675 1.5-1.5v-9c0-0.825-0.477-1.977-1.061-2.561zM10 2.118c0.034 0.013 0.070 0.026 0.106 0.041 0.282 0.117 0.478 0.253 0.541 0.316l1.879 1.879c0.063 0.063 0.199 0.259 0.316 0.541 0.015 0.036 0.029 0.071 0.041 0.106h-2.882v-2.882zM13 14h-10v-12h6v4h4v8zM4 8h8v1h-8zM4 10h8v1h-8zM4 12h8v1h-8z" fill="#000000"></path>
</svg>
