<?xml version="1.0" encoding="utf-8"?>
<!-- Generated by IcoMoon.io -->
<!DOCTYPE svg PUBLIC "-//W3C//DTD SVG 1.1//EN" "http://www.w3.org/Graphics/SVG/1.1/DTD/svg11.dtd">
<svg version="1.1" xmlns="http://www.w3.org/2000/svg" xmlns:xlink="http://www.w3.org/1999/xlink" width="16" height="16" viewBox="0 0 16 16">
<g id="icomoon-ignore">
	<line stroke-width="1" x1="" y1="" x2="" y2="" stroke="#449FDB" opacity=""></line>
</g>
	<path d="M8.016 12c-2.067 0-4.089-0.303-6.033-0.902l0.316-0.949c1.842 0.565 3.757 0.851 5.716 0.851 0.255 0 0.51-0.005 0.764-0.015 0.066-1.212 0.221-1.985 0.221-1.985s-1 0-3 0c0-2.735 0.935-5.157 1.952-6.984h-7.952v11.969h8.847c-0.073-0.714-0.098-1.388-0.096-1.998-0.244 0.009-0.489 0.013-0.735 0.013zM3 4h1v2h-1v-2zM16 2.016h-6.674c-0.030 0.050-0.061 0.1-0.091 0.151-0.6 1.009-1.077 2.043-1.417 3.074-0.284 0.861-0.473 1.722-0.565 2.572h3.201l-0.288 1.419c-0.005 0.025-0.128 0.669-0.191 1.671 1.279-0.127 2.535-0.378 3.758-0.753l0.316 0.949c-1.337 0.412-2.71 0.684-4.11 0.813-0.001 0.068-0.001 0.137-0.001 0.207 0.002 0.635 0.037 1.259 0.103 1.865h5.959v-11.969zM13 6h-1v-2h1v2zM9.176 16h1.221c-0.085-0.341-0.159-0.691-0.221-1.048-0.055-0.316-0.1-0.639-0.136-0.967h-1.194c0.066 0.647 0.171 1.325 0.329 2.016zM10.757 0h-1.506c-0.402 0.545-0.858 1.225-1.299 2.016h1.374c0.526-0.864 1.049-1.553 1.431-2.016z" fill="#000000"></path>
</svg>
