<?xml version="1.0" encoding="utf-8"?>
<!-- Generated by IcoMoon.io -->
<!DOCTYPE svg PUBLIC "-//W3C//DTD SVG 1.1//EN" "http://www.w3.org/Graphics/SVG/1.1/DTD/svg11.dtd">
<svg version="1.1" xmlns="http://www.w3.org/2000/svg" xmlns:xlink="http://www.w3.org/1999/xlink" width="16" height="16" viewBox="0 0 16 16">
<g id="icomoon-ignore">
	<line stroke-width="1" x1="" y1="" x2="" y2="" stroke="#449FDB" opacity=""></line>
</g>
	<path d="M13 2.692c1.195 0 2.267-0.65 3-1.142v9.308c-0.733 0.492-1.805 1.142-3 1.142s-2.267-0.354-3-0.846c-0.733-0.492-1.805-0.846-3-0.846s-2.267 0.608-3 1.1v-9.308c0.733-0.492 1.805-1.1 3-1.1s2.267 0.354 3 0.846c0.733 0.492 1.805 0.846 3 0.846zM2 0c0.552 0 1 0.448 1 1v15h-2v-15c0-0.552 0.448-1 1-1z" fill="#000000"></path>
</svg>
