<?xml version="1.0" encoding="utf-8"?>
<!-- Generated by IcoMoon.io -->
<!DOCTYPE svg PUBLIC "-//W3C//DTD SVG 1.1//EN" "http://www.w3.org/Graphics/SVG/1.1/DTD/svg11.dtd">
<svg version="1.1" xmlns="http://www.w3.org/2000/svg" xmlns:xlink="http://www.w3.org/1999/xlink" width="16" height="16" viewBox="0 0 16 16">
<g id="icomoon-ignore">
	<line stroke-width="1" x1="" y1="" x2="" y2="" stroke="#449FDB" opacity=""></line>
</g>
	<path d="M13.5 0c-1.381 0-2.5 1.119-2.5 2.5v7.5h2v6h3v-13.5c0-1.381-1.119-2.5-2.5-2.5zM6.5 0c-0.276 0-0.5 0.224-0.5 0.5v3.5c0 0.138-0.224 0.25-0.5 0.25s-0.5-0.112-0.5-0.25v-3.5c0-0.276-0.224-0.5-0.5-0.5s-0.5 0.224-0.5 0.5v3.5c0 0.138-0.224 0.25-0.5 0.25s-0.5-0.112-0.5-0.25v-3.5c0-0.276-0.224-0.5-0.5-0.5s-0.5 0.224-0.5 0.5v3.5c0 0.138-0.224 0.25-0.5 0.25s-0.5-0.112-0.5-0.25v-3.5c0-0.276-0.224-0.5-0.5-0.5s-0.5 0.224-0.5 0.5v4.5c0 0.442 0.392 0.689 0.828 1 0.55 0.392 1.172 0.885 1.172 2v8h3v-8c0-1.115 0.622-1.608 1.172-2 0.437-0.311 0.828-0.558 0.828-1v-4.5c0-0.276-0.224-0.5-0.5-0.5z" fill="#000000"></path>
</svg>
