<?xml version="1.0" encoding="utf-8"?>
<!-- Generated by IcoMoon.io -->
<!DOCTYPE svg PUBLIC "-//W3C//DTD SVG 1.1//EN" "http://www.w3.org/Graphics/SVG/1.1/DTD/svg11.dtd">
<svg version="1.1" xmlns="http://www.w3.org/2000/svg" xmlns:xlink="http://www.w3.org/1999/xlink" width="16" height="16" viewBox="0 0 16 16">
<g id="icomoon-ignore">
	<line stroke-width="1" x1="" y1="" x2="" y2="" stroke="#449FDB" opacity=""></line>
</g>
	<path d="M15.995 0h-1.767l-3.869 5.311-1.532-1.532c-0.216-0.216-0.503-0.335-0.808-0.335s-0.592 0.119-0.808 0.335l-0.696 0.696c-0.039-0.053-0.080-0.106-0.123-0.157-0.948-1.107-2.614-1.238-3.721-0.29s-1.237 2.613-0.29 3.721c0.217 0.254 0.473 0.456 0.75 0.606 0.006 0.285 0.117 0.568 0.333 0.785l3.745 3.745c0.216 0.216 0.503 0.335 0.808 0.335s0.592-0.119 0.808-0.335l3.745-3.745c0.216-0.216 0.335-0.503 0.335-0.808s-0.119-0.592-0.335-0.808l-0.431-0.431 3.853-3.251v-3.842zM7.742 4.309c0.074-0.074 0.173-0.115 0.278-0.115s0.204 0.041 0.278 0.115l1.615 1.615-1.756 2.41c-0.173 0.193-0.326 0.092-0.386 0.020-0.021-0.024-0.433-0.564-0.965-1.262 0.264-0.605 0.293-1.294 0.076-1.922l0.861-0.861zM12.043 8.055c0.074 0.074 0.115 0.173 0.115 0.278s-0.041 0.204-0.115 0.278l-3.745 3.745c-0.074 0.074-0.173 0.115-0.277 0.115s-0.204-0.041-0.278-0.115l-3.707-3.707c0.432 0.058 0.876 0.010 1.291-0.148l2.487 2c0 0 0.136 0.126 0.286 0.004l3.467-2.926 0.476 0.476z" fill="#000000"></path>
</svg>
