<?xml version="1.0" encoding="utf-8"?>
<!-- Generated by IcoMoon.io -->
<!DOCTYPE svg PUBLIC "-//W3C//DTD SVG 1.1//EN" "http://www.w3.org/Graphics/SVG/1.1/DTD/svg11.dtd">
<svg version="1.1" xmlns="http://www.w3.org/2000/svg" xmlns:xlink="http://www.w3.org/1999/xlink" width="16" height="16" viewBox="0 0 16 16">
<g id="icomoon-ignore">
	<line stroke-width="1" x1="" y1="" x2="" y2="" stroke="#449FDB" opacity=""></line>
</g>
	<path d="M13.333 0h-10.666c-1.467 0-2.667 1.2-2.667 2.667v10.666c0 1.468 1.2 2.667 2.667 2.667h10.666c1.467 0 2.667-1.199 2.667-2.667v-10.666c0-1.467-1.2-2.667-2.667-2.667zM14.686 14.687c-0.363 0.363-0.844 0.563-1.353 0.563h-10.666c-0.509 0-0.99-0.2-1.353-0.563s-0.564-0.844-0.564-1.354v-10.666c0-0.509 0.2-0.99 0.564-1.353s0.844-0.564 1.353-0.564h10.666c0.111 0 0.22 0.010 0.328 0.029l-3.302 4.532-1.532-1.532c-0.216-0.216-0.503-0.335-0.808-0.335s-0.592 0.119-0.808 0.335l-0.696 0.696c-0.039-0.053-0.080-0.106-0.123-0.157-0.948-1.107-2.614-1.238-3.721-0.29s-1.237 2.613-0.29 3.721c0.217 0.254 0.473 0.456 0.75 0.606 0.006 0.285 0.117 0.568 0.333 0.785l3.745 3.745c0.216 0.216 0.503 0.335 0.808 0.335s0.592-0.119 0.808-0.335l3.745-3.745c0.216-0.216 0.335-0.503 0.335-0.808s-0.119-0.592-0.335-0.808l-0.431-0.431 3.108-2.733v8.973c0 0.509-0.2 0.99-0.564 1.354zM6.881 5.17l0.861-0.861c0.074-0.074 0.173-0.115 0.278-0.115s0.204 0.041 0.278 0.115l1.615 1.615-1.756 2.41c-0.173 0.193-0.326 0.092-0.386 0.020-0.021-0.024-0.433-0.564-0.965-1.262 0.264-0.605 0.293-1.294 0.076-1.922zM7.813 10.501c0 0 0.136 0.126 0.286 0.004l3.467-2.926 0.476 0.476c0.074 0.074 0.115 0.173 0.115 0.278s-0.041 0.204-0.115 0.278l-3.745 3.745c-0.074 0.074-0.173 0.115-0.277 0.115s-0.204-0.041-0.278-0.115l-3.707-3.707c0.432 0.058 0.876 0.010 1.291-0.148l2.487 2z" fill="#000000"></path>
</svg>
