<?xml version="1.0" encoding="utf-8"?>
<!-- Generated by IcoMoon.io -->
<!DOCTYPE svg PUBLIC "-//W3C//DTD SVG 1.1//EN" "http://www.w3.org/Graphics/SVG/1.1/DTD/svg11.dtd">
<svg version="1.1" xmlns="http://www.w3.org/2000/svg" xmlns:xlink="http://www.w3.org/1999/xlink" width="16" height="16" viewBox="0 0 16 16">
<g id="icomoon-ignore">
	<line stroke-width="1" x1="" y1="" x2="" y2="" stroke="#449FDB" opacity=""></line>
</g>
	<path d="M3.676 3.886c-0.794 0-1.476 0.263-2.048 0.788-0.595 0.56-0.893 1.26-0.893 2.101 0 0.56 0.162 1.085 0.489 1.575 0.292 0.455 0.597 0.747 0.997 0.875v0.035c-0.4 0.163-0.578 0.572-0.578 1.225 0 0.502 0.178 0.875 0.578 1.12v0.035c-1.104 0.362-1.609 1.033-1.609 2.013 0 0.852 0.371 1.476 1.095 1.873 0.572 0.315 1.306 0.473 2.193 0.473 2.159 0 3.241-0.904 3.241-2.713 0-1.132-0.833-1.826-2.502-2.083-0.385-0.058-0.676-0.198-0.875-0.42-0.152-0.152-0.227-0.303-0.227-0.455 0-0.432 0.234-0.683 0.7-0.753 0.712-0.105 1.293-0.435 1.742-0.989s0.674-1.205 0.674-1.952c0-0.233-0.071-0.484-0.164-0.753 0.303-0.070 0.516-0.134 0.676-0.193v-1.803c-0.704 0.28-1.359 0.42-1.919 0.42-0.49-0.28-0.997-0.42-1.569-0.42zM3.869 12.621c0.98 0 1.47 0.298 1.47 0.893 0 0.63-0.449 0.945-1.348 0.945-1.027 0-1.54-0.303-1.54-0.91-0-0.619 0.473-0.928 1.418-0.928zM3.746 8c-0.735 0-1.103-0.403-1.103-1.208 0-0.863 0.368-1.295 1.103-1.295 0.35 0 0.624 0.134 0.823 0.403 0.163 0.245 0.245 0.537 0.245 0.875 0 0.817-0.356 1.225-1.068 1.225zM9.069 0c-0.338 0-0.627 0.128-0.866 0.385s-0.359 0.566-0.359 0.928c0 0.35 0.12 0.653 0.359 0.91s0.528 0.385 0.866 0.385c0.327 0 0.61-0.128 0.849-0.385s0.359-0.56 0.359-0.91c0-0.362-0.12-0.671-0.359-0.928s-0.522-0.385-0.849-0.385zM10.049 4h-1.978c0.023 0.224-0.010 0.563-0.010 1.112v5.444c0 0.56 0.033 1.012 0.010 1.188h1.978c-0.023-0.256-0.084-0.698-0.084-1.293v-5.374c-0-0.513 0.061-0.853 0.084-1.077zM14.412 10.066c-0.514 0-0.767-0.391-0.767-1.173v-3.229h0.779c0.14 0 0.266-0.008 0.424 0.004s0.221 0.004 0.301 0.004v-1.672h-1.504v-0.744c0-0.28 0.044-0.536 0.079-0.696h-2.031c0.035 0.16 0.032 0.404 0.032 0.731v0.709h-0.88v1.672c0.24-0.035 0.455-0.052 0.606-0.052l0.274 0.017v3.169c0 0.98 0.124 1.698 0.369 2.153 0.327 0.607 0.9 0.91 1.752 0.91 0.607 0 1.142-0.117 1.542-0.35v-1.751c-0.32 0.198-0.615 0.298-0.977 0.298z" fill="#000000"></path>
</svg>
