<?xml version="1.0" encoding="utf-8"?>
<!-- Generated by IcoMoon.io -->
<!DOCTYPE svg PUBLIC "-//W3C//DTD SVG 1.1//EN" "http://www.w3.org/Graphics/SVG/1.1/DTD/svg11.dtd">
<svg version="1.1" xmlns="http://www.w3.org/2000/svg" xmlns:xlink="http://www.w3.org/1999/xlink" width="16" height="16" viewBox="0 0 16 16">
<g id="icomoon-ignore">
	<line stroke-width="1" x1="" y1="" x2="" y2="" stroke="#449FDB" opacity=""></line>
</g>
	<path d="M4.117 11.865c0 0.423 0.358 0.634 1.073 0.634 0.626 0 0.939-0.219 0.939-0.658 0-0.415-0.341-0.622-1.024-0.622-0.659-0-0.988 0.215-0.988 0.646zM13.334 0h-10.667c-1.467 0-2.667 1.2-2.667 2.667v10.666c0 1.468 1.2 2.667 2.667 2.667h10.667c1.467 0 2.666-1.199 2.666-2.667v-10.666c0-1.467-1.2-2.667-2.666-2.667zM7.433 6.39c-0.114 0.041-0.276 0.085-0.488 0.134 0.065 0.187 0.098 0.362 0.098 0.524 0 0.52-0.157 0.973-0.469 1.36s-0.717 0.616-1.213 0.689c-0.325 0.049-0.488 0.224-0.488 0.524 0 0.106 0.053 0.211 0.159 0.317 0.138 0.154 0.341 0.252 0.61 0.293 1.162 0.179 1.744 0.662 1.744 1.451 0 1.26-0.752 1.89-2.256 1.89-0.618 0-1.126-0.11-1.524-0.329-0.504-0.276-0.756-0.711-0.756-1.305 0-0.683 0.378-1.15 1.134-1.402v-0.024c-0.276-0.171-0.414-0.431-0.414-0.78 0-0.455 0.13-0.74 0.39-0.853v-0.024c-0.26-0.089-0.492-0.293-0.695-0.61-0.228-0.341-0.341-0.707-0.341-1.097 0-0.585 0.207-1.073 0.622-1.463 0.398-0.366 0.874-0.549 1.427-0.549 0.398 0 0.768 0.097 1.11 0.293 0.39 0 0.841-0.098 1.354-0.293l-0 1.256zM9.409 10.609h-1.378c0.016-0.163 0.024-0.439 0.024-0.829v-3.792c0-0.382-0.008-0.646-0.024-0.792h1.378c-0.016 0.154-0.024 0.41-0.024 0.768v3.743c0 0.415 0.008 0.715 0.024 0.902zM9.317 3.976c-0.167 0.179-0.364 0.268-0.591 0.268-0.236 0-0.437-0.089-0.604-0.268s-0.25-0.39-0.25-0.634c0-0.252 0.083-0.467 0.25-0.646s0.368-0.268 0.604-0.268c0.228 0 0.425 0.089 0.591 0.268s0.25 0.394 0.25 0.646c0 0.244-0.083 0.455-0.25 0.634zM13.151 10.451c-0.301 0.163-0.663 0.244-1.085 0.244-0.593 0-1.004-0.211-1.231-0.634-0.171-0.317-0.256-0.817-0.256-1.5v-2.183h0.012v-0.024l-0.183-0.012c-0.106 0-0.244 0.012-0.415 0.037v-1.183h0.597v-0.476c0-0.228-0.012-0.411-0.037-0.549h1.414c-0.024 0.154-0.037 0.329-0.037 0.524v0.5h1.061v1.183c-0.041 0-0.116-0.004-0.226-0.012s-0.213-0.012-0.311-0.012h-0.524v2.268c0 0.545 0.179 0.817 0.536 0.817 0.252 0 0.48-0.069 0.683-0.207v1.219zM5.019 6.256c-0.512 0-0.768 0.301-0.768 0.902 0 0.561 0.256 0.841 0.768 0.841 0.496 0 0.744-0.284 0.744-0.854 0-0.236-0.057-0.439-0.171-0.61-0.138-0.187-0.329-0.28-0.573-0.28z" fill="#000000"></path>
</svg>
