<?xml version="1.0" encoding="utf-8"?>
<!-- Generated by IcoMoon.io -->
<!DOCTYPE svg PUBLIC "-//W3C//DTD SVG 1.1//EN" "http://www.w3.org/Graphics/SVG/1.1/DTD/svg11.dtd">
<svg version="1.1" xmlns="http://www.w3.org/2000/svg" xmlns:xlink="http://www.w3.org/1999/xlink" width="16" height="16" viewBox="0 0 16 16">
<g id="icomoon-ignore">
	<line stroke-width="1" x1="" y1="" x2="" y2="" stroke="#449FDB" opacity=""></line>
</g>
	<path d="M0 8.694c0 0.725 0.068 1.381 0.203 1.968s0.323 1.097 0.563 1.53c0.24 0.433 0.545 0.814 0.915 1.142s0.772 0.597 1.205 0.806c0.433 0.209 0.927 0.378 1.483 0.509s1.123 0.222 1.702 0.274c0.579 0.052 1.215 0.078 1.909 0.078 0.699 0 1.338-0.026 1.917-0.078s1.148-0.143 1.706-0.274c0.558-0.13 1.055-0.3 1.49-0.509s0.84-0.477 1.213-0.806c0.373-0.329 0.681-0.709 0.923-1.142s0.432-0.943 0.567-1.53c0.136-0.587 0.203-1.243 0.203-1.968 0-1.294-0.433-2.412-1.299-3.357 0.047-0.125 0.090-0.267 0.129-0.426s0.076-0.386 0.11-0.681c0.034-0.295 0.021-0.635-0.039-1.021s-0.171-0.78-0.333-1.181l-0.117-0.023c-0.083-0.016-0.22-0.012-0.411 0.012s-0.412 0.070-0.665 0.141c-0.253 0.070-0.579 0.206-0.978 0.407s-0.82 0.452-1.264 0.755c-0.761-0.209-1.807-0.313-3.137-0.313-1.325 0-2.368 0.104-3.13 0.313-0.443-0.303-0.867-0.554-1.271-0.755s-0.726-0.336-0.966-0.407c-0.24-0.070-0.464-0.116-0.673-0.137s-0.34-0.027-0.395-0.020c-0.055 0.008-0.098 0.017-0.129 0.027-0.162 0.402-0.273 0.795-0.333 1.181s-0.073 0.726-0.039 1.021c0.034 0.295 0.070 0.522 0.11 0.681s0.082 0.301 0.129 0.426c-0.866 0.944-1.299 2.063-1.299 3.357zM1.964 10.658c0-0.751 0.342-1.44 1.025-2.066 0.203-0.188 0.441-0.33 0.712-0.426s0.578-0.151 0.919-0.164c0.342-0.013 0.669-0.010 0.982 0.008s0.699 0.043 1.158 0.074c0.459 0.031 0.855 0.047 1.189 0.047s0.73-0.016 1.189-0.047c0.459-0.031 0.845-0.056 1.158-0.074s0.64-0.021 0.982-0.008c0.342 0.013 0.648 0.068 0.919 0.164s0.508 0.239 0.712 0.426c0.683 0.616 1.025 1.304 1.025 2.066 0 0.449-0.056 0.846-0.168 1.193s-0.256 0.638-0.43 0.872c-0.175 0.235-0.417 0.434-0.728 0.599s-0.613 0.291-0.908 0.38c-0.295 0.089-0.673 0.158-1.134 0.207s-0.874 0.080-1.236 0.090c-0.363 0.010-0.823 0.016-1.381 0.016s-1.018-0.005-1.381-0.016c-0.362-0.010-0.775-0.040-1.236-0.090s-0.84-0.119-1.134-0.207c-0.295-0.089-0.597-0.215-0.908-0.38s-0.553-0.364-0.728-0.599c-0.175-0.235-0.318-0.525-0.43-0.872s-0.168-0.745-0.168-1.193zM10 10.5c0-0.828 0.448-1.5 1-1.5s1 0.672 1 1.5c0 0.828-0.448 1.5-1 1.5s-1-0.672-1-1.5zM4 10.5c0-0.828 0.448-1.5 1-1.5s1 0.672 1 1.5c0 0.828-0.448 1.5-1 1.5s-1-0.672-1-1.5z" fill="#000000"></path>
</svg>
