<?xml version="1.0" encoding="utf-8"?>
<!-- Generated by IcoMoon.io -->
<!DOCTYPE svg PUBLIC "-//W3C//DTD SVG 1.1//EN" "http://www.w3.org/Graphics/SVG/1.1/DTD/svg11.dtd">
<svg version="1.1" xmlns="http://www.w3.org/2000/svg" xmlns:xlink="http://www.w3.org/1999/xlink" width="16" height="16" viewBox="0 0 16 16">
<g id="icomoon-ignore">
	<line stroke-width="1" x1="" y1="" x2="" y2="" stroke="#449FDB" opacity=""></line>
</g>
	<path d="M6.828 12.784c0 1.173-0.725 2.1-2.777 2.175-1.203-0.684-2.211-1.671-2.92-2.857 0.37-0.914 1.526-1.61 2.849-1.596 0.375 0.004 0.725 0.064 1.043 0.167 0.874 0.607 1.578 0.987 1.755 1.679 0.033 0.14 0.051 0.284 0.051 0.432zM8 0c-2.312 0-4.394 0.981-5.854 2.548 0.577-0.32 1.258-0.51 1.983-0.51 1.048 0 4.007 0 4.007 0l-0.895 0.94h-1.052c0.742 0.425 1.137 1.301 1.137 2.266 0 0.886-0.491 1.6-1.184 2.142-0.676 0.528-0.805 0.749-0.805 1.199 0 0.383 0.808 0.955 1.18 1.233 1.294 0.97 1.556 1.581 1.556 2.795 0 1.23-1.077 2.455-2.904 2.871 0.88 0.333 1.835 0.516 2.832 0.516 4.418 0 8-3.582 8-8s-3.582-8-8-8zM12 6v2h-1v-2h-2v-1h2v-2h1v2h2v1h-2zM5.715 5.304c0.186 1.418-0.435 2.331-1.515 2.299s-2.106-1.023-2.293-2.441c-0.186-1.419 0.538-2.504 1.618-2.472s2.003 1.196 2.19 2.614zM3.451 10.032c-1.167 0-2.158 0.403-2.857 0.998-0.383-0.935-0.594-1.958-0.594-3.030 0-0.887 0.145-1.74 0.411-2.537 0.115 1.554 1.209 2.753 3.015 2.753 0.133 0 0.262-0.007 0.389-0.016-0.124 0.238-0.213 0.503-0.213 0.781 0 0.468 0.258 0.735 0.576 1.045-0.241 0-0.473 0.007-0.727 0.007z" fill="#000000"></path>
</svg>
