<?xml version="1.0" encoding="utf-8"?>
<!-- Generated by IcoMoon.io -->
<!DOCTYPE svg PUBLIC "-//W3C//DTD SVG 1.1//EN" "http://www.w3.org/Graphics/SVG/1.1/DTD/svg11.dtd">
<svg version="1.1" xmlns="http://www.w3.org/2000/svg" xmlns:xlink="http://www.w3.org/1999/xlink" width="16" height="16" viewBox="0 0 16 16">
<g id="icomoon-ignore">
	<line stroke-width="1" x1="" y1="" x2="" y2="" stroke="#449FDB" opacity=""></line>
</g>
	<path d="M13.336 0h-10.692c-1.47 0-2.644 1.215-2.644 2.686v10.631c0 1.507 1.174 2.684 2.644 2.684h10.692c1.47 0 2.664-1.177 2.664-2.684v-10.63c0-1.47-1.194-2.686-2.664-2.686zM11 0.5v2.5h-2.5v-2.5h2.5zM7.5 0.5v2.5h-2.5v-2.5h2.5zM0.5 3v-0.314c0-1.205 0.962-2.186 2.144-2.186h1.356v2.5h-3.5zM12 10h-3v3h-2v-3h-3v-2h3v-3h2v3h3v2zM15.5 3h-3.5v-2.5h1.336c1.193 0 2.164 0.98 2.164 2.186v0.314z" fill="#000000"></path>
</svg>
