<?xml version="1.0" encoding="utf-8"?>
<!-- Generated by IcoMoon.io -->
<!DOCTYPE svg PUBLIC "-//W3C//DTD SVG 1.1//EN" "http://www.w3.org/Graphics/SVG/1.1/DTD/svg11.dtd">
<svg version="1.1" xmlns="http://www.w3.org/2000/svg" xmlns:xlink="http://www.w3.org/1999/xlink" width="16" height="16" viewBox="0 0 16 16">
<g id="icomoon-ignore">
	<line stroke-width="1" x1="" y1="" x2="" y2="" stroke="#449FDB" opacity=""></line>
</g>
	<path d="M3 9.036v6.929c0.163 0.023 0.33 0.036 0.5 0.036h0.5v-7h-0.5c-0.17 0-0.337 0.012-0.5 0.036zM12 9v7h0.5c0.17 0 0.337-0.012 0.5-0.036v-6.929c-0.163-0.023-0.33-0.036-0.5-0.036h-0.5zM16 8c0-4.418-3.582-8-8-8s-8 3.582-8 8c0 0.96 0.169 1.88 0.479 2.732-0.304 0.519-0.479 1.123-0.479 1.768 0 1.396 0.818 2.601 2 3.163v-6.326c-0.314 0.149-0.603 0.345-0.857 0.577-0.094-0.457-0.143-0.929-0.143-1.414 0-3.866 3.134-7 7-7s7 3.134 7 7c0 0.484-0.049 0.957-0.143 1.414-0.254-0.232-0.543-0.427-0.857-0.577v6.326c1.182-0.562 2-1.767 2-3.163 0-0.645-0.175-1.249-0.479-1.768 0.31-0.853 0.479-1.773 0.479-2.732z" fill="#000000"></path>
</svg>
