<?xml version="1.0" encoding="utf-8"?>
<!-- Generated by IcoMoon.io -->
<!DOCTYPE svg PUBLIC "-//W3C//DTD SVG 1.1//EN" "http://www.w3.org/Graphics/SVG/1.1/DTD/svg11.dtd">
<svg version="1.1" xmlns="http://www.w3.org/2000/svg" xmlns:xlink="http://www.w3.org/1999/xlink" width="16" height="16" viewBox="0 0 16 16">
<g id="icomoon-ignore">
	<line stroke-width="1" x1="" y1="" x2="" y2="" stroke="#449FDB" opacity=""></line>
</g>
	<path d="M13.313 0h-10.625c-1.478 0-2.688 1.209-2.688 2.688v10.625c0 1.478 1.209 2.688 2.688 2.688h10.625c1.478 0 2.688-1.209 2.688-2.688v-10.625c0-1.478-1.209-2.688-2.688-2.688zM13.182 12.62c-1.771 0.583-5.229 1.719-5.875 1.88s-1.313 0.432-1.688-0.651c0 0-3.188-9.417-3.479-10.25s-0.576-1.336 0.083-1.599c1.522-0.608 3.104-1.383 3.396-0.5 0.261 0.79 3.042 9.5 3.042 9.5s3.271-1.151 4.167-1.401 1.203-0.417 1.438 0.813 0.688 1.625-1.083 2.208z" fill="#000000"></path>
</svg>
