<?xml version="1.0" encoding="utf-8"?>
<!-- Generated by IcoMoon.io -->
<!DOCTYPE svg PUBLIC "-//W3C//DTD SVG 1.1//EN" "http://www.w3.org/Graphics/SVG/1.1/DTD/svg11.dtd">
<svg version="1.1" xmlns="http://www.w3.org/2000/svg" xmlns:xlink="http://www.w3.org/1999/xlink" width="16" height="16" viewBox="0 0 16 16">
<g id="icomoon-ignore">
	<line stroke-width="1" x1="" y1="" x2="" y2="" stroke="#449FDB" opacity=""></line>
</g>
	<path d="M13.313 0h-10.625c-1.478 0-2.688 1.209-2.688 2.688v10.625c0 1.478 1.209 2.688 2.688 2.688h10.625c1.478 0 2.688-1.209 2.688-2.688v-10.625c0-1.478-1.209-2.688-2.688-2.688zM11.664 11.889c-2.774 0-3.737-1.251-4.25-2.806l-0.513-1.604c-0.385-1.171-0.834-2.085-2.245-2.085-0.978 0-1.973 0.706-1.973 2.678 0 1.54 0.786 2.502 1.892 2.502 1.251 0 2.085-0.93 2.085-0.93l0.513 1.395c0 0-0.866 0.85-2.678 0.85-2.245 0-3.496-1.315-3.496-3.753 0-2.534 1.251-4.025 3.608-4.025 2.133 0 3.207 0.77 3.881 2.855l0.529 1.604c0.385 1.171 1.058 2.021 2.678 2.021 1.091 0 1.668-0.241 1.668-0.834 0-0.465-0.273-0.802-1.090-0.994l-1.091-0.256c-1.331-0.321-1.86-1.010-1.86-2.101 0-1.748 1.411-2.293 2.854-2.293 1.636 0 2.63 0.593 2.758 2.037l-1.604 0.192c-0.064-0.69-0.481-0.978-1.251-0.978-0.706 0-1.139 0.321-1.139 0.866 0 0.481 0.208 0.77 0.914 0.93l1.026 0.224c1.379 0.321 2.117 0.994 2.117 2.293-0 1.604-1.347 2.213-3.336 2.213z" fill="#000000"></path>
</svg>
