<?xml version="1.0" encoding="utf-8"?>
<!-- Generated by IcoMoon.io -->
<!DOCTYPE svg PUBLIC "-//W3C//DTD SVG 1.1//EN" "http://www.w3.org/Graphics/SVG/1.1/DTD/svg11.dtd">
<svg version="1.1" xmlns="http://www.w3.org/2000/svg" xmlns:xlink="http://www.w3.org/1999/xlink" width="16" height="16" viewBox="0 0 16 16">
<g id="icomoon-ignore">
	<line stroke-width="1" x1="" y1="" x2="" y2="" stroke="#449FDB" opacity=""></line>
</g>
	<path d="M12.806 12.713c-1.667-0.007-2.555-0.822-3.172-2.258l-0.177-0.392-1.521-3.469c-0.505-1.228-1.757-2.057-3.169-2.057-1.911 0-3.462 1.551-3.462 3.464s1.551 3.464 3.462 3.464c1.333 0 2.493-0.754 3.072-1.859l0.615 1.419c-0.874 1.065-2.201 1.743-3.687 1.743-2.633 0-4.767-2.133-4.767-4.767 0-2.633 2.134-4.768 4.767-4.768 1.987 0 3.591 1.061 4.406 2.941 0.062 0.146 0.862 2.017 1.56 3.609 0.432 0.986 0.801 1.639 1.996 1.68 1.175 0.040 1.981-0.675 1.981-1.578 0-0.883-0.615-1.095-1.652-1.44-1.865-0.615-2.828-1.232-2.828-2.711 0-1.443 0.982-2.405 2.577-2.405 1.039 0 1.789 0.462 2.309 1.384l-1.020 0.521c-0.384-0.538-0.808-0.75-1.346-0.75-0.749 0-1.283 0.521-1.283 1.214 0 0.983 0.88 1.132 2.109 1.535 1.656 0.539 2.425 1.155 2.425 2.693 0 1.615-1.386 2.79-3.194 2.788z" fill="#000000"></path>
</svg>
