<?xml version="1.0" encoding="utf-8"?>
<!-- Generated by IcoMoon.io -->
<!DOCTYPE svg PUBLIC "-//W3C//DTD SVG 1.1//EN" "http://www.w3.org/Graphics/SVG/1.1/DTD/svg11.dtd">
<svg version="1.1" xmlns="http://www.w3.org/2000/svg" xmlns:xlink="http://www.w3.org/1999/xlink" width="16" height="16" viewBox="0 0 16 16">
<g id="icomoon-ignore">
	<line stroke-width="1" x1="" y1="" x2="" y2="" stroke="#449FDB" opacity=""></line>
</g>
	<path d="M11.212 0c-2.637 4.359-4.723 2.215-7.775 5.35-2.693 2.767-1.759 6.099 0.508 7.246 2.238-1.144 4.528-3.7 6.226-7.402 0 0 1.526 4.674-3.148 9.178 2.27 2.659 6.122 0.809 7.199-3.421 1.17-4.598-1.881-9.28-3.010-10.952zM1.516 15.098c0.002 0.045 0.053 0.902 1.178 0.902 0.818 0 4.966-2.261 7.098-8.128-3.226 5.706-7.908 7.122-8.275 7.226z" fill="#000000"></path>
</svg>
