<?xml version="1.0" encoding="utf-8"?>
<!-- Generated by IcoMoon.io -->
<!DOCTYPE svg PUBLIC "-//W3C//DTD SVG 1.1//EN" "http://www.w3.org/Graphics/SVG/1.1/DTD/svg11.dtd">
<svg version="1.1" xmlns="http://www.w3.org/2000/svg" xmlns:xlink="http://www.w3.org/1999/xlink" width="16" height="16" viewBox="0 0 16 16">
<g id="icomoon-ignore">
	<line stroke-width="1" x1="" y1="" x2="" y2="" stroke="#449FDB" opacity=""></line>
</g>
	<path d="M8 0l-8 5h16l-8-5zM12.5 6l0.5 1v6h2v-6l0.5-1h-3zM8.5 6l0.5 1v6h2v-6l0.5-1h-3zM4.5 6l0.5 1v6h2v-6l0.5-1h-3zM0.5 6l0.5 1v6h2v-6l0.5-1h-3zM0.5 14l-0.5 2h16l-0.5-2h-15zM9 3c0 0.552-0.448 1-1 1s-1-0.448-1-1 0.448-1 1-1c0.552 0 1 0.448 1 1z" fill="#000000"></path>
</svg>
