<?xml version="1.0" encoding="utf-8"?>
<!-- Generated by IcoMoon.io -->
<!DOCTYPE svg PUBLIC "-//W3C//DTD SVG 1.1//EN" "http://www.w3.org/Graphics/SVG/1.1/DTD/svg11.dtd">
<svg version="1.1" xmlns="http://www.w3.org/2000/svg" xmlns:xlink="http://www.w3.org/1999/xlink" width="16" height="16" viewBox="0 0 16 16">
<g id="icomoon-ignore">
	<line stroke-width="1" x1="" y1="" x2="" y2="" stroke="#449FDB" opacity=""></line>
</g>
	<path d="M14.897 1.166l-0.063-0.063c-1.471-1.471-3.878-1.471-5.349 0l-3.408 3.408c-1.471 1.471-1.471 3.878 0 5.349l0.063 0.063c0.122 0.123 0.252 0.233 0.386 0.335l1.248-1.248c-0.145-0.086-0.283-0.189-0.408-0.313l-0.063-0.063c-0.799-0.798-0.799-2.098 0-2.897l3.408-3.408c0.799-0.799 2.098-0.799 2.897 0l0.063 0.063c0.798 0.799 0.798 2.098 0 2.897l-1.542 1.542c0.268 0.661 0.395 1.366 0.383 2.069l2.384-2.384c1.471-1.471 1.471-3.878-0-5.349zM9.86 6.077c-0.122-0.122-0.252-0.233-0.386-0.335l-1.248 1.247c0.145 0.086 0.283 0.189 0.408 0.313l0.063 0.063c0.799 0.799 0.799 2.098 0 2.897l-3.408 3.408c-0.799 0.798-2.098 0.798-2.897 0l-0.063-0.063c-0.798-0.799-0.798-2.098 0-2.897l1.542-1.542c-0.268-0.661-0.394-1.366-0.383-2.069l-2.384 2.384c-1.471 1.471-1.471 3.878 0 5.349l0.063 0.063c1.471 1.471 3.878 1.471 5.349 0l3.408-3.408c1.471-1.471 1.471-3.878 0-5.349l-0.063-0.063z" fill="#000000"></path>
</svg>
