<?xml version="1.0" encoding="utf-8"?>
<!-- Generated by IcoMoon.io -->
<!DOCTYPE svg PUBLIC "-//W3C//DTD SVG 1.1//EN" "http://www.w3.org/Graphics/SVG/1.1/DTD/svg11.dtd">
<svg version="1.1" xmlns="http://www.w3.org/2000/svg" xmlns:xlink="http://www.w3.org/1999/xlink" width="16" height="16" viewBox="0 0 16 16">
<g id="icomoon-ignore">
	<line stroke-width="1" x1="" y1="" x2="" y2="" stroke="#449FDB" opacity=""></line>
</g>
	<path d="M13.657 2.343c-1.448-1.448-3.447-2.343-5.657-2.343-3.429 0-6.355 2.158-7.492 5.19l1.873 0.702c0.853-2.274 3.047-3.893 5.619-3.893 1.657 0 3.157 0.672 4.242 1.758l-2.242 2.242h6v-6l-2.343 2.343zM8 14c-1.657 0-3.157-0.672-4.242-1.758l2.242-2.242h-6v6l2.344-2.344c1.448 1.448 3.447 2.344 5.656 2.344 3.43 0 6.355-2.158 7.492-5.19l-1.873-0.702c-0.853 2.274-3.047 3.893-5.619 3.893z" fill="#000000"></path>
</svg>
