<?xml version="1.0" encoding="utf-8"?>
<!-- Generated by IcoMoon.io -->
<!DOCTYPE svg PUBLIC "-//W3C//DTD SVG 1.1//EN" "http://www.w3.org/Graphics/SVG/1.1/DTD/svg11.dtd">
<svg version="1.1" xmlns="http://www.w3.org/2000/svg" xmlns:xlink="http://www.w3.org/1999/xlink" width="16" height="16" viewBox="0 0 16 16">
<g id="icomoon-ignore">
	<line stroke-width="1" x1="" y1="" x2="" y2="" stroke="#449FDB" opacity=""></line>
</g>
	<path d="M13.43 0.415l-0.072-0.415h-3.858l0.103 0.587c0.349 1.986 1.161 6.821 1.161 8.82 0 1.534-1.24 2.781-2.764 2.781s-2.764-1.248-2.764-2.781c0-1.999 0.812-6.834 1.161-8.82l0.103-0.587h-3.858l-0.072 0.415c-0.423 2.444-1.133 6.862-1.133 8.992 0 3.636 2.944 6.594 6.563 6.594s6.563-2.958 6.563-6.594c0-2.129-0.71-6.547-1.133-8.992zM8 15c-3.067 0-5.563-2.509-5.563-5.594 0-1.262 0.264-3.392 0.565-5.406h1.818c-0.312 2.051-0.585 4.188-0.585 5.406 0 2.085 1.689 3.781 3.764 3.781s3.764-1.696 3.764-3.781c0-1.218-0.273-3.356-0.585-5.406h1.818c0.301 2.014 0.565 4.144 0.565 5.406 0 3.084-2.495 5.594-5.563 5.594z" fill="#000000"></path>
</svg>
