<?xml version="1.0" encoding="utf-8"?>
<!-- Generated by IcoMoon.io -->
<!DOCTYPE svg PUBLIC "-//W3C//DTD SVG 1.1//EN" "http://www.w3.org/Graphics/SVG/1.1/DTD/svg11.dtd">
<svg version="1.1" xmlns="http://www.w3.org/2000/svg" xmlns:xlink="http://www.w3.org/1999/xlink" width="16" height="16" viewBox="0 0 16 16">
<g id="icomoon-ignore">
	<line stroke-width="1" x1="" y1="" x2="" y2="" stroke="#449FDB" opacity=""></line>
</g>
	<path d="M13 5h-1v-1.5c0-1.381-2.686-2.5-6-2.5s-6 1.119-6 2.5v9c0 1.381 2.686 2.5 6 2.5s6-1.119 6-2.5v-1.5h1c1.65 0 3-1.35 3-3s-1.35-3-3-3zM2.751 2.963c0.905-0.298 2.059-0.463 3.249-0.463s2.344 0.164 3.249 0.463c0.578 0.19 0.928 0.394 1.116 0.537-0.188 0.143-0.538 0.347-1.116 0.537-0.905 0.298-2.059 0.463-3.249 0.463s-2.344-0.164-3.249-0.463c-0.578-0.19-0.928-0.394-1.116-0.537 0.188-0.143 0.538-0.347 1.116-0.537zM14.131 8.881c-0.138 0.138-0.436 0.369-0.881 0.369h-1.25v-2.5h1.25c0.445 0 0.743 0.231 0.881 0.369s0.369 0.436 0.369 0.881-0.231 0.743-0.369 0.881z" fill="#000000"></path>
</svg>
