<?xml version="1.0" encoding="utf-8"?>
<!-- Generated by IcoMoon.io -->
<!DOCTYPE svg PUBLIC "-//W3C//DTD SVG 1.1//EN" "http://www.w3.org/Graphics/SVG/1.1/DTD/svg11.dtd">
<svg version="1.1" xmlns="http://www.w3.org/2000/svg" xmlns:xlink="http://www.w3.org/1999/xlink" width="16" height="16" viewBox="0 0 16 16">
<g id="icomoon-ignore">
	<line stroke-width="1" x1="" y1="" x2="" y2="" stroke="#449FDB" opacity=""></line>
</g>
	<path d="M14.037 1h-12.037v2h-1.463c-0.275 0-0.537 0.196-0.537 0.471v1c0 0.275 0.262 0.529 0.537 0.529h1.463v1h-1.463c-0.275 0-0.537 0.196-0.537 0.471v1c0 0.275 0.262 0.529 0.537 0.529h1.463v1h-1.463c-0.275 0-0.537 0.196-0.537 0.471v1c0 0.275 0.262 0.529 0.537 0.529h1.463v1h-1.463c-0.275 0-0.537 0.196-0.537 0.471v1c0 0.275 0.262 0.529 0.537 0.529h1.463v2h12.037c0.552 0 0.963-0.477 0.963-1.029v-13c0-0.552-0.411-0.971-0.963-0.971zM5 15h-2v-1h0.537c0.275 0 0.463-0.254 0.463-0.529v-1c0-0.275-0.188-0.471-0.463-0.471h-0.537v-1h0.537c0.275 0 0.463-0.254 0.463-0.529v-1c0-0.275-0.188-0.471-0.463-0.471h-0.537v-1h0.537c0.275 0 0.463-0.254 0.463-0.529v-1c0-0.275-0.188-0.471-0.463-0.471h-0.537v-1h0.537c0.275 0 0.463-0.254 0.463-0.529v-1c0-0.275-0.188-0.471-0.463-0.471h-0.537v-1h2v13z" fill="#000000"></path>
</svg>
