<?xml version="1.0" encoding="utf-8"?>
<!-- Generated by IcoMoon.io -->
<!DOCTYPE svg PUBLIC "-//W3C//DTD SVG 1.1//EN" "http://www.w3.org/Graphics/SVG/1.1/DTD/svg11.dtd">
<svg version="1.1" xmlns="http://www.w3.org/2000/svg" xmlns:xlink="http://www.w3.org/1999/xlink" width="16" height="16" viewBox="0 0 16 16">
<g id="icomoon-ignore">
	<line stroke-width="1" x1="" y1="" x2="" y2="" stroke="#449FDB" opacity=""></line>
</g>
	<path d="M13.76 2.043c0.402 0.196 0.751 0.476 1.008 0.82 0.54 0.723 0.691 1.709 0.451 2.929-0.243 1.235-0.788 2.277-1.581 3.032-0.145 0.152-0.3 0.293-0.466 0.423-0.849 0.669-1.922 1.022-3.102 1.022h-3.751l-1.009 4.73h-2.069l0.158-0.723h0.721l1.009-4.73h2.942c2.816 0 5.171-1.736 5.801-4.686 0.714-3.341-1.681-4.86-3.741-4.86h-7.020l-3.11 14.277h2.376l-0.375 1.723h4.12l1.009-4.73h2.942c2.816 0 5.171-1.736 5.801-4.686 0.527-2.464-0.638-3.936-2.111-4.54zM6.599 2.908h2.018c1.009 0 1.681 0.868 1.387 1.952-0.252 1.085-1.303 1.953-2.354 1.953h-1.934l0.883-3.905z" fill="#000000"></path>
</svg>
