<?xml version="1.0" encoding="utf-8"?>
<!-- Generated by IcoMoon.io -->
<!DOCTYPE svg PUBLIC "-//W3C//DTD SVG 1.1//EN" "http://www.w3.org/Graphics/SVG/1.1/DTD/svg11.dtd">
<svg version="1.1" xmlns="http://www.w3.org/2000/svg" xmlns:xlink="http://www.w3.org/1999/xlink" width="16" height="16" viewBox="0 0 16 16">
<g id="icomoon-ignore">
	<line stroke-width="1" x1="" y1="" x2="" y2="" stroke="#449FDB" opacity=""></line>
</g>
	<path d="M15 4.5l-3.5-3.5 1-1 3.5 3.5zM14 5.5l-0.5 5.5c-4.5 0-11 5-11 5l-0.83-0.83 4.276-4.276c0.171 0.068 0.358 0.106 0.554 0.106 0.828 0 1.5-0.672 1.5-1.5s-0.672-1.5-1.5-1.5c-0.828 0-1.5 0.672-1.5 1.5 0 0.196 0.038 0.383 0.106 0.554l-4.276 4.276-0.83-0.83c0 0 5-6.5 5-11l5.5-0.5 3.5 3.5z" fill="#000000"></path>
</svg>
