<?xml version="1.0" encoding="utf-8"?>
<!-- Generated by IcoMoon.io -->
<!DOCTYPE svg PUBLIC "-//W3C//DTD SVG 1.1//EN" "http://www.w3.org/Graphics/SVG/1.1/DTD/svg11.dtd">
<svg version="1.1" xmlns="http://www.w3.org/2000/svg" xmlns:xlink="http://www.w3.org/1999/xlink" width="16" height="16" viewBox="0 0 16 16">
<g id="icomoon-ignore">
	<line stroke-width="1" x1="" y1="" x2="" y2="" stroke="#449FDB" opacity=""></line>
</g>
	<path d="M13.334 0h-10.667c-1.467 0-2.667 1.2-2.667 2.667v10.666c0 1.468 1.2 2.667 2.667 2.667h10.667c1.467 0 2.666-1.199 2.666-2.667v-10.666c0-1.467-1.199-2.667-2.666-2.667zM8 1c1.074 0 2.091 0.242 3 0.674v4.486l-4.899-4.899c0.604-0.17 1.241-0.261 1.899-0.261zM1 8c0-2.748 1.584-5.126 3.889-6.272l1.772 1.772-5.578 5.578c-0.054-0.351-0.083-0.711-0.083-1.078zM4 13.745c-1.167-0.814-2.074-1.974-2.573-3.332l2.573-2.573v5.905zM8 15c-1.074 0-2.091-0.242-3-0.674v-2.326h8.745c-1.265 1.813-3.366 3-5.745 3zM14.326 11h-2.326v-8.745c1.813 1.265 3 3.366 3 5.745 0 1.074-0.242 2.091-0.674 3z" fill="#000000"></path>
</svg>
