<?xml version="1.0" encoding="utf-8"?>
<!-- Generated by IcoMoon.io -->
<!DOCTYPE svg PUBLIC "-//W3C//DTD SVG 1.1//EN" "http://www.w3.org/Graphics/SVG/1.1/DTD/svg11.dtd">
<svg version="1.1" xmlns="http://www.w3.org/2000/svg" xmlns:xlink="http://www.w3.org/1999/xlink" width="16" height="16" viewBox="0 0 16 16">
<g id="icomoon-ignore">
	<line stroke-width="1" x1="" y1="" x2="" y2="" stroke="#449FDB" opacity=""></line>
</g>
	<path d="M5 14v-5.434c-1.264 0.351-1.572 0.528-2.906 0.528-1.155 0-2.094-0.939-2.094-2.094s0.939-2.094 2.094-2.094c1.625 0 2.374-0.605 3.214-1.798 0.025-0.035 0.049-0.072 0.074-0.108h-1.382v-3h10v3h-0.891c0.067 0.995 0.347 1.268 0.689 1.601 0.264 0.257 0.592 0.577 0.832 1.157 0.252 0.609 0.369 1.401 0.369 2.493v1.015c0 0.968-0.801 1.755-1.786 1.755-0.164 0-0.326-0.022-0.483-0.065-0.328 0.308-0.766 0.484-1.231 0.484-0.164 0-0.326-0.022-0.483-0.065-0.328 0.308-0.766 0.484-1.232 0.484-0.282 0-0.548-0.065-0.786-0.18v2.322c0 1.105-0.895 2-2 2s-2-0.895-2-2zM13 1.5c0-0.276-0.224-0.5-0.5-0.5s-0.5 0.224-0.5 0.5 0.224 0.5 0.5 0.5 0.5-0.224 0.5-0.5zM8 13.906v-4h1v0.102c0 0.416 0.352 0.755 0.786 0.755 0.271 0 0.52-0.132 0.665-0.354l0.254-0.387 0.406 0.223c0.118 0.065 0.253 0.1 0.389 0.1 0.271 0 0.52-0.132 0.665-0.354l0.254-0.387 0.406 0.223c0.118 0.065 0.253 0.1 0.389 0.1 0.433 0 0.786-0.339 0.786-0.755v-1.015c0-1.978-0.597-2.376-1.030-2.799-0.443-0.431-0.937-0.914-1.043-2.358h-5.225c-0.129 0.246-0.27 0.48-0.423 0.698-1.060 1.506-2.18 2.302-4.185 2.302-0.5 0-0.906 0.469-0.906 0.969s0.407 0.938 0.906 0.938c1.338 0 1.647-0.194 2.906-0.577 0.355-0.096 0.707-0.186 0.99-0.248l0.010 6.826c0 0.551 0.449 1 1 1s1-0.449 1-1z" fill="#000000"></path>
</svg>
