<?xml version="1.0" encoding="utf-8"?>
<!-- Generated by IcoMoon.io -->
<!DOCTYPE svg PUBLIC "-//W3C//DTD SVG 1.1//EN" "http://www.w3.org/Graphics/SVG/1.1/DTD/svg11.dtd">
<svg version="1.1" xmlns="http://www.w3.org/2000/svg" xmlns:xlink="http://www.w3.org/1999/xlink" width="16" height="16" viewBox="0 0 16 16">
<g id="icomoon-ignore">
	<line stroke-width="1" x1="" y1="" x2="" y2="" stroke="#449FDB" opacity=""></line>
</g>
	<path d="M2 6h5.434c-0.351-1.264-0.528-1.572-0.528-2.906 0-1.155 0.939-2.094 2.094-2.094s2.094 0.939 2.094 2.094c0 1.625 0.605 2.374 1.798 3.214 0.035 0.025 0.072 0.049 0.108 0.074v-1.382h3v10h-3v-0.891c-0.995 0.067-1.268 0.347-1.601 0.689-0.257 0.264-0.577 0.592-1.157 0.832-0.609 0.252-1.401 0.369-2.493 0.369h-1.015c-0.968 0-1.755-0.801-1.755-1.786 0-0.164 0.022-0.326 0.065-0.483-0.308-0.328-0.484-0.766-0.484-1.231 0-0.164 0.022-0.326 0.065-0.483-0.308-0.328-0.484-0.766-0.484-1.232 0-0.282 0.065-0.548 0.179-0.786h-2.322c-1.105 0-2-0.895-2-2s0.895-2 2-2zM14.5 14c0.276 0 0.5-0.224 0.5-0.5s-0.224-0.5-0.5-0.5-0.5 0.224-0.5 0.5 0.224 0.5 0.5 0.5zM2.094 9h4v1h-0.102c-0.416 0-0.755 0.352-0.755 0.786 0 0.271 0.132 0.52 0.354 0.665l0.387 0.254-0.223 0.406c-0.065 0.118-0.099 0.253-0.099 0.389 0 0.271 0.132 0.52 0.354 0.665l0.387 0.254-0.223 0.406c-0.065 0.118-0.099 0.253-0.099 0.389 0 0.433 0.339 0.786 0.755 0.786h1.015c1.978 0 2.376-0.597 2.799-1.030 0.431-0.443 0.914-0.937 2.358-1.043v-5.225c-0.246-0.129-0.48-0.27-0.698-0.423-1.506-1.060-2.302-2.18-2.302-4.185 0-0.5-0.469-0.906-0.969-0.906s-0.938 0.407-0.938 0.906c0 1.338 0.194 1.647 0.578 2.906 0.096 0.355 0.186 0.707 0.248 0.99l-6.826 0.010c-0.551 0-1 0.449-1 1s0.449 1 1 1z" fill="#000000"></path>
</svg>
