<?xml version="1.0" encoding="utf-8"?>
<!-- Generated by IcoMoon.io -->
<!DOCTYPE svg PUBLIC "-//W3C//DTD SVG 1.1//EN" "http://www.w3.org/Graphics/SVG/1.1/DTD/svg11.dtd">
<svg version="1.1" xmlns="http://www.w3.org/2000/svg" xmlns:xlink="http://www.w3.org/1999/xlink" width="16" height="16" viewBox="0 0 16 16">
<g id="icomoon-ignore">
	<line stroke-width="1" x1="" y1="" x2="" y2="" stroke="#449FDB" opacity=""></line>
</g>
	<path d="M4 1h8v2h-8zM15 4h-14c-0.55 0-1 0.45-1 1v5c0 0.55 0.45 1 1 1h3v4h8v-4h3c0.55 0 1-0.45 1-1v-5c0-0.55-0.45-1-1-1zM11 14h-6v-5h6v5zM15.225 5.5c0 0.4-0.325 0.725-0.725 0.725s-0.725-0.325-0.725-0.725 0.325-0.725 0.725-0.725c0.4 0 0.725 0.325 0.725 0.725z" fill="#000000"></path>
</svg>
