<?xml version="1.0" encoding="utf-8"?>
<!-- Generated by IcoMoon.io -->
<!DOCTYPE svg PUBLIC "-//W3C//DTD SVG 1.1//EN" "http://www.w3.org/Graphics/SVG/1.1/DTD/svg11.dtd">
<svg version="1.1" xmlns="http://www.w3.org/2000/svg" xmlns:xlink="http://www.w3.org/1999/xlink" width="16" height="16" viewBox="0 0 16 16">
<g id="icomoon-ignore">
	<line stroke-width="1" x1="" y1="" x2="" y2="" stroke="#449FDB" opacity=""></line>
</g>
	<path d="M6 9.167c0 0 3.187-1.912 4.981-1.157 0.372-0.567 0.738-1.177 1.097-1.8-1.755-0.43-4.078-0.043-4.078-0.043s2.972-1.783 4.792-1.225c0.365-0.658 0.72-1.307 1.062-1.911-1.45-0.098-2.853 0.136-2.853 0.136s1.862-1.117 3.54-1.306c0.528-0.857 1.018-1.529 1.46-1.86-8.766 0-14 10-16 16h1l3-5c0 0 1 1 4 0 0.711-0.237 1.421-0.895 2.118-1.78-1.76-0.446-4.118-0.053-4.118-0.053z" fill="#000000"></path>
</svg>
