<?xml version="1.0" encoding="utf-8"?>
<!-- Generated by IcoMoon.io -->
<!DOCTYPE svg PUBLIC "-//W3C//DTD SVG 1.1//EN" "http://www.w3.org/Graphics/SVG/1.1/DTD/svg11.dtd">
<svg version="1.1" xmlns="http://www.w3.org/2000/svg" xmlns:xlink="http://www.w3.org/1999/xlink" width="16" height="16" viewBox="0 0 16 16">
<g id="icomoon-ignore">
	<line stroke-width="1" x1="" y1="" x2="" y2="" stroke="#449FDB" opacity=""></line>
</g>
	<path d="M12.5 2h-9c-0.828 0-1.5 0.672-1.5 1.5v0.5h12v-0.5c0-0.828-0.672-1.5-1.5-1.5zM9.88 1l0.221 1.578h-4.201l0.221-1.578h3.76zM10 0h-4c-0.412 0-0.797 0.334-0.854 0.743l-0.292 2.093c-0.057 0.409 0.234 0.743 0.646 0.743h5c0.412 0 0.703-0.334 0.646-0.743l-0.292-2.093c-0.057-0.409-0.441-0.743-0.854-0.743v0zM12.75 5h-9.5c-0.55 0-0.959 0.448-0.909 0.996l0.819 9.008c0.050 0.548 0.541 0.996 1.091 0.996h7.5c0.55 0 1.041-0.448 1.091-0.996l0.819-9.008c0.050-0.548-0.359-0.996-0.909-0.996zM6 14h-1.5l-0.5-7h2v7zM9 14h-2v-7h2v7zM11.5 14h-1.5v-7h2l-0.5 7z" fill="#000000"></path>
</svg>
