<?xml version="1.0" encoding="utf-8"?>
<!-- Generated by IcoMoon.io -->
<!DOCTYPE svg PUBLIC "-//W3C//DTD SVG 1.1//EN" "http://www.w3.org/Graphics/SVG/1.1/DTD/svg11.dtd">
<svg version="1.1" xmlns="http://www.w3.org/2000/svg" xmlns:xlink="http://www.w3.org/1999/xlink" width="16" height="16" viewBox="0 0 16 16">
<path fill="#444444" d="M21.9 0.599h-11.8c-1.082 0-1.967 0.885-1.967 1.967v11.8c0 1.082 0.885 1.967 1.967 1.967h11.8c1.082 0 1.967-0.885 1.967-1.967v-11.8c0-1.082-0.885-1.967-1.967-1.967zM15.017 12.806l-3.645-3.645 1.391-1.391 2.255 2.255 4.713-4.713 1.391 1.391-6.104 6.104z"></path>
<path fill="#444444" d="M8.625 23.617v2.766c0 0.255 0.206 0.461 0.461 0.461h13.829c0.255 0 0.461-0.206 0.461-0.461v-2.766c0-0.255-0.206-0.461-0.461-0.461h-13.829c-0.255 0-0.461 0.206-0.461 0.461z"></path>
</svg>
