<?xml version="1.0" encoding="utf-8"?>
<!-- Generated by IcoMoon.io -->
<!DOCTYPE svg PUBLIC "-//W3C//DTD SVG 1.1//EN" "http://www.w3.org/Graphics/SVG/1.1/DTD/svg11.dtd">
<svg version="1.1" xmlns="http://www.w3.org/2000/svg" xmlns:xlink="http://www.w3.org/1999/xlink" width="16" height="16" viewBox="0 0 16 16">
<g id="icomoon-ignore">
	<line stroke-width="1" x1="" y1="" x2="" y2="" stroke="#449FDB" opacity=""></line>
</g>
	<path d="M8 1c-0.376 0-0.745 0.028-1.107 0.081-0.005-0.012-0.010-0.024-0.015-0.036 0.2-0.156 0.305-0.372 0.26-0.587-0.058-0.274-0.35-0.459-0.726-0.459-0.081 0-0.163 0.009-0.245 0.026-0.471 0.1-0.784 0.447-0.711 0.79 0.044 0.208 0.223 0.365 0.471 0.428-0 0.015-0 0.030 0.001 0.046-3.135 0.899-5.429 3.787-5.429 7.21 0 4.142 3.358 7.5 7.5 7.5s7.5-3.358 7.5-7.5c0-4.142-3.358-7.5-7.5-7.5zM5.701 0.764c-0.042-0.199 0.195-0.425 0.518-0.493 0.065-0.014 0.13-0.021 0.193-0.021 0.251 0 0.448 0.107 0.481 0.261 0.025 0.117-0.048 0.244-0.178 0.342-0.11-0.078-0.25-0.111-0.392-0.081s-0.255 0.117-0.324 0.232c-0.159-0.038-0.274-0.126-0.298-0.24zM12.022 12.522c-0.687 0.687-1.519 1.176-2.427 1.44l-0.662-1.075-0.168 1.249c-0.251 0.034-0.507 0.051-0.765 0.051-1.519 0-2.947-0.592-4.022-1.666-0.687-0.687-1.176-1.519-1.44-2.427l1.075-0.662-1.249-0.168c-0.034-0.251-0.051-0.507-0.051-0.765 0-1.519 0.592-2.947 1.666-4.022 0.687-0.687 1.519-1.176 2.427-1.44l0.662 1.075 0.168-1.249c0.251-0.034 0.507-0.051 0.765-0.051 1.519 0 2.947 0.592 4.022 1.666 0.687 0.687 1.176 1.519 1.44 2.427l-1.075 0.662 1.249 0.168c0.034 0.251 0.051 0.507 0.051 0.765 0 1.519-0.592 2.947-1.666 4.022zM11.889 4.611l-3.078 2.339c-0.229-0.12-0.482-0.188-0.741-0.199l-0.798-1.675-0.048 1.854c-0.208 0.102-0.392 0.245-0.545 0.421l-0.986-0.349 0.72 0.758c-0.099 0.211-0.154 0.438-0.163 0.669l-1.674 0.798 1.855 0.048c0.006 0.012 0.012 0.024 0.018 0.036l-2.339 3.078 3.078-2.339c0.229 0.12 0.482 0.188 0.741 0.199l0.798 1.675 0.048-1.854c0.208-0.102 0.392-0.245 0.545-0.421l0.986 0.35-0.72-0.758c0.099-0.211 0.154-0.438 0.163-0.669l1.674-0.798-1.855-0.048c-0.006-0.012-0.012-0.024-0.018-0.036l2.339-3.078zM8.002 6.946v0zM7.688 7.033c0.105-0.022 0.21-0.033 0.313-0.033 0.065 0 0.129 0.004 0.192 0.012l0.001 0-0-0c0.136 0.018 0.268 0.055 0.393 0.108l-1.118 0.85-0.85 1.118c-0.037-0.087-0.067-0.179-0.087-0.276-0.172-0.81 0.345-1.607 1.155-1.779zM8.783 9.779v0 0c-0.142 0.087-0.3 0.151-0.471 0.188-0.105 0.022-0.21 0.033-0.313 0.033-0.065 0-0.129-0.004-0.192-0.012l-0.001-0c-0.136-0.018-0.268-0.055-0.393-0.108l1.118-0.85 0.85-1.118c0.037 0.087 0.067 0.179 0.087 0.276 0.136 0.639-0.157 1.269-0.684 1.591z" fill="#000000"></path>
</svg>
