<?xml version="1.0" encoding="utf-8"?>
<!-- Generated by IcoMoon.io -->
<!DOCTYPE svg PUBLIC "-//W3C//DTD SVG 1.1//EN" "http://www.w3.org/Graphics/SVG/1.1/DTD/svg11.dtd">
<svg version="1.1" xmlns="http://www.w3.org/2000/svg" xmlns:xlink="http://www.w3.org/1999/xlink" width="16" height="16" viewBox="0 0 16 16">
<g id="icomoon-ignore">
	<line stroke-width="1" x1="" y1="" x2="" y2="" stroke="#449FDB" opacity=""></line>
</g>
	<path d="M16 4l-4-4v3c-2.043 0-3.605 0.488-4.776 1.491-0.082 0.070-0.161 0.142-0.237 0.215 0.43 0.596 0.761 1.211 1.059 1.798 0.755-0.913 1.845-1.504 3.954-1.504v6c-3.382 0-4.143-1.521-5.106-3.447-0.536-1.072-1.090-2.181-2.119-3.062-1.17-1.003-2.732-1.491-4.776-1.491v2c3.382 0 4.143 1.521 5.106 3.447 0.536 1.072 1.090 2.181 2.119 3.062 1.17 1.003 2.733 1.491 4.776 1.491v3l4-4-4-4 4-4zM0 11v2c2.043 0 3.605-0.488 4.776-1.491 0.082-0.070 0.161-0.142 0.237-0.215-0.43-0.596-0.761-1.211-1.059-1.798-0.755 0.913-1.845 1.504-3.954 1.504z" fill="#000000"></path>
</svg>
