<?xml version="1.0" encoding="utf-8"?>
<!-- Generated by IcoMoon.io -->
<!DOCTYPE svg PUBLIC "-//W3C//DTD SVG 1.1//EN" "http://www.w3.org/Graphics/SVG/1.1/DTD/svg11.dtd">
<svg version="1.1" xmlns="http://www.w3.org/2000/svg" xmlns:xlink="http://www.w3.org/1999/xlink" width="16" height="16" viewBox="0 0 16 16">
<g id="icomoon-ignore">
	<line stroke-width="1" x1="" y1="" x2="" y2="" stroke="#449FDB" opacity=""></line>
</g>
	<path d="M7 12.414l-3.207-3.707 0.914-0.914 2.293 1.793 4.293-3.793 0.914 0.914zM12.996 2c0.001 0.001 0.003 0.002 0.004 0.004v11.993c-0.001 0.001-0.002 0.003-0.004 0.004h-9.993c-0.001-0.001-0.003-0.002-0.004-0.004v-11.993c0.001-0.001 0.002-0.003 0.004-0.004h-2.004v12c0 1.1 0.9 2 2 2h10c1.1 0 2-0.9 2-2v-12h-2.004zM10 2v-1c0-0.552-0.448-1-1-1h-2c-0.552 0-1 0.448-1 1v1h-2v2h8v-2h-2zM9 2h-2v-1h2v1z" fill="#000000"></path>
</svg>
