<?xml version="1.0" encoding="utf-8"?>
<!-- Generated by IcoMoon.io -->
<!DOCTYPE svg PUBLIC "-//W3C//DTD SVG 1.1//EN" "http://www.w3.org/Graphics/SVG/1.1/DTD/svg11.dtd">
<svg version="1.1" xmlns="http://www.w3.org/2000/svg" xmlns:xlink="http://www.w3.org/1999/xlink" width="16" height="16" viewBox="0 0 16 16">
<g id="icomoon-ignore">
	<line stroke-width="1" x1="" y1="" x2="" y2="" stroke="#449FDB" opacity=""></line>
</g>
	<path d="M8 0c-4.418 0-8 3.582-8 8s3.582 8 8 8 8-3.582 8-8-3.582-8-8-8zM8 4c-0.551 0-1 0.449-1 1v4c0 1.654-1.346 3-3 3s-3-1.346-3-3v-2h2v2c0 0.551 0.449 1 1 1s1-0.449 1-1v-4c0-1.654 1.346-3 3-3s3 1.346 3 2.781v0.969l-1.281 0.375-0.719-0.375v-0.969c0-0.333-0.449-0.781-1-0.781zM12 12c-1.654 0-3-1.346-3-3.219v-1.938l0.719 0.375 1.281-0.375v1.938c0 0.77 0.449 1.219 1 1.219s1-0.449 1-1v-2h2v2c0 1.654-1.346 3-3 3z" fill="#000000"></path>
</svg>
