<?xml version="1.0" encoding="utf-8"?>
<!-- Generated by IcoMoon.io -->
<!DOCTYPE svg PUBLIC "-//W3C//DTD SVG 1.1//EN" "http://www.w3.org/Graphics/SVG/1.1/DTD/svg11.dtd">
<svg version="1.1" xmlns="http://www.w3.org/2000/svg" xmlns:xlink="http://www.w3.org/1999/xlink" width="17" height="16" viewBox="0 0 17 16">
<g id="icomoon-ignore">
	<line stroke-width="1" x1="" y1="" x2="" y2="" stroke="#449FDB" opacity=""></line>
</g>
	<path d="M15.5 1h-3.5c-0.825 0-1.977 0.477-2.561 1.061l-5.879 5.879c-0.583 0.583-0.583 1.538 0 2.121l4.379 4.379c0.583 0.583 1.538 0.583 2.121 0l5.879-5.879c0.583-0.583 1.061-1.736 1.061-2.561v-3.5c0-0.825-0.675-1.5-1.5-1.5zM13.5 6c-0.828 0-1.5-0.672-1.5-1.5s0.672-1.5 1.5-1.5 1.5 0.672 1.5 1.5-0.672 1.5-1.5 1.5zM1.354 9.354l5.35 5.35c-0.567 0.299-1.288 0.212-1.764-0.264l-4.379-4.379c-0.583-0.583-0.583-1.538 0-2.121l5.879-5.879c0.583-0.583 1.736-1.061 2.561-1.061l-7.646 7.646c-0.194 0.194-0.194 0.513 0 0.707z" fill="#000000"></path>
</svg>
