<?xml version="1.0" encoding="utf-8"?>
<!-- Generated by IcoMoon.io -->
<!DOCTYPE svg PUBLIC "-//W3C//DTD SVG 1.1//EN" "http://www.w3.org/Graphics/SVG/1.1/DTD/svg11.dtd">
<svg version="1.1" xmlns="http://www.w3.org/2000/svg" xmlns:xlink="http://www.w3.org/1999/xlink" width="16" height="16" viewBox="0 0 16 16">
<g id="icomoon-ignore">
	<line stroke-width="1" x1="" y1="" x2="" y2="" stroke="#449FDB" opacity=""></line>
</g>
	<path d="M16 9l-2-4h-3v-2c0-0.55-0.45-1-1-1h-9c-0.55 0-1 0.45-1 1v8l1 1h1.268c-0.17 0.294-0.268 0.636-0.268 1 0 1.105 0.895 2 2 2s2-0.895 2-2c0-0.364-0.098-0.706-0.268-1h5.536c-0.17 0.294-0.268 0.636-0.268 1 0 1.105 0.895 2 2 2s2-0.895 2-2c0-0.364-0.098-0.706-0.268-1h1.268v-3zM11 9v-2.5h2.073l1.25 2.5h-3.323z" fill="#000000"></path>
</svg>
