<?xml version="1.0" encoding="utf-8"?>
<!-- Generated by IcoMoon.io -->
<!DOCTYPE svg PUBLIC "-//W3C//DTD SVG 1.1//EN" "http://www.w3.org/Graphics/SVG/1.1/DTD/svg11.dtd">
<svg version="1.1" xmlns="http://www.w3.org/2000/svg" xmlns:xlink="http://www.w3.org/1999/xlink" width="16" height="16" viewBox="0 0 16 16">
<g id="icomoon-ignore">
	<line stroke-width="1" x1="" y1="" x2="" y2="" stroke="#449FDB" opacity=""></line>
</g>
	<path d="M13.334 0h-10.667c-1.467 0-2.667 1.2-2.667 2.667v10.666c0 1.468 1.2 2.667 2.667 2.667h10.667c1.467 0 2.666-1.199 2.666-2.667v-10.666c-0-1.467-1.199-2.667-2.666-2.667zM11.433 12.886c-0.471 0.222-0.899 0.378-1.281 0.468s-0.796 0.134-1.241 0.134c-0.505 0-0.803-0.063-1.19-0.19s-0.719-0.31-0.992-0.545c-0.274-0.236-0.464-0.487-0.57-0.753s-0.159-0.651-0.159-1.156v-3.872h-1.5v-1.564c0.433-0.141 0.936-0.343 1.245-0.605 0.31-0.264 0.558-0.579 0.745-0.948s0.316-0.838 0.387-1.407h1.57v2.554h2.553v1.971h-2.553v2.831c0 0.641-0.008 1.010 0.060 1.191 0.067 0.181 0.236 0.368 0.42 0.477 0.245 0.146 0.524 0.22 0.838 0.22 0.559 0 1.115-0.182 1.668-0.545v1.741z" fill="#000000"></path>
</svg>
