<?xml version="1.0" encoding="utf-8"?>
<!-- Generated by IcoMoon.io -->
<!DOCTYPE svg PUBLIC "-//W3C//DTD SVG 1.1//EN" "http://www.w3.org/Graphics/SVG/1.1/DTD/svg11.dtd">
<svg version="1.1" xmlns="http://www.w3.org/2000/svg" xmlns:xlink="http://www.w3.org/1999/xlink" width="16" height="16" viewBox="0 0 16 16">
<g id="icomoon-ignore">
	<line stroke-width="1" x1="" y1="" x2="" y2="" stroke="#449FDB" opacity=""></line>
</g>
	<path d="M13.333 0h-10.666c-1.467 0-2.667 1.2-2.667 2.667v10.666c0 1.468 1.2 2.667 2.667 2.667h10.666c1.467 0 2.667-1.199 2.667-2.667v-10.666c0-1.467-1.2-2.667-2.667-2.667zM13.095 5.341c0.005 0.115 0.008 0.23 0.008 0.346 0 3.535-2.644 7.61-7.479 7.61-1.484 0-2.866-0.443-4.029-1.202 0.206 0.025 0.415 0.037 0.627 0.037 1.232 0 2.365-0.428 3.265-1.145-1.15-0.022-2.121-0.795-2.456-1.858 0.161 0.031 0.325 0.048 0.495 0.048 0.24 0 0.472-0.033 0.692-0.094-1.202-0.246-2.109-1.327-2.109-2.623 0-0.011 0-0.022 0-0.034 0.354 0.2 0.76 0.321 1.191 0.335-0.705-0.48-1.169-1.298-1.169-2.226 0-0.49 0.13-0.95 0.356-1.345 1.296 1.618 3.233 2.683 5.418 2.795-0.045-0.196-0.068-0.4-0.068-0.61 0-1.477 1.177-2.675 2.629-2.675 0.756 0 1.439 0.325 1.919 0.845 0.599-0.12 1.161-0.343 1.669-0.649-0.196 0.625-0.613 1.149-1.156 1.48 0.532-0.065 1.038-0.208 1.51-0.421-0.352 0.536-0.798 1.007-1.312 1.385z" fill="#000000"></path>
</svg>
