<?xml version="1.0" encoding="utf-8"?>
<!-- Generated by IcoMoon.io -->
<!DOCTYPE svg PUBLIC "-//W3C//DTD SVG 1.1//EN" "http://www.w3.org/Graphics/SVG/1.1/DTD/svg11.dtd">
<svg version="1.1" xmlns="http://www.w3.org/2000/svg" xmlns:xlink="http://www.w3.org/1999/xlink" width="16" height="16" viewBox="0 0 16 16">
<g id="icomoon-ignore">
	<line stroke-width="1" x1="" y1="" x2="" y2="" stroke="#449FDB" opacity=""></line>
</g>
	<path d="M8 0c-4.418 0-8 3.582-8 8s3.582 8 8 8 8-3.582 8-8-3.582-8-8-8zM12.598 5.642c0.005 0.102 0.007 0.204 0.007 0.307 0 3.135-2.386 6.749-6.749 6.749-1.34 0-2.587-0.393-3.636-1.066 0.186 0.022 0.374 0.033 0.566 0.033 1.111 0 2.134-0.379 2.946-1.016-1.038-0.019-1.914-0.705-2.216-1.647 0.145 0.028 0.293 0.043 0.446 0.043 0.216 0 0.426-0.029 0.625-0.083-1.085-0.218-1.903-1.177-1.903-2.326 0-0.010 0-0.020 0-0.030 0.32 0.178 0.686 0.284 1.074 0.297-0.637-0.425-1.055-1.151-1.055-1.974 0-0.435 0.117-0.842 0.321-1.193 1.17 1.435 2.918 2.38 4.889 2.479-0.040-0.174-0.061-0.355-0.061-0.541 0-1.31 1.062-2.372 2.372-2.372 0.682 0 1.299 0.288 1.732 0.749 0.54-0.106 1.048-0.304 1.506-0.576-0.177 0.554-0.553 1.019-1.043 1.312 0.48-0.057 0.937-0.185 1.362-0.373-0.318 0.476-0.72 0.894-1.184 1.228z" fill="#000000"></path>
</svg>
