<?xml version="1.0" encoding="utf-8"?>
<!-- Generated by IcoMoon.io -->
<!DOCTYPE svg PUBLIC "-//W3C//DTD SVG 1.1//EN" "http://www.w3.org/Graphics/SVG/1.1/DTD/svg11.dtd">
<svg version="1.1" xmlns="http://www.w3.org/2000/svg" xmlns:xlink="http://www.w3.org/1999/xlink" width="16" height="16" viewBox="0 0 16 16">
<g id="icomoon-ignore">
	<line stroke-width="1" x1="" y1="" x2="" y2="" stroke="#449FDB" opacity=""></line>
</g>
	<path d="M13.333 0h-10.666c-1.467 0-2.667 1.2-2.667 2.667v10.666c0 1.468 1.2 2.667 2.667 2.667h10.666c1.467 0 2.667-1.199 2.667-2.667v-10.666c0-1.467-1.2-2.667-2.667-2.667zM12.701 6.846c-0.531 2.989-3.495 5.52-4.387 6.099s-1.706-0.232-2.001-0.844c-0.338-0.699-1.35-4.483-1.615-4.797s-1.061 0.314-1.061 0.314l-0.386-0.506c0 0 1.615-1.929 2.844-2.17 1.303-0.256 1.301 2.001 1.615 3.254 0.303 1.212 0.507 1.905 0.771 1.905s0.772-0.676 1.326-1.712c0.555-1.037-0.024-1.953-1.109-1.301 0.434-2.604 4.532-3.23 4.002-0.241z" fill="#000000"></path>
</svg>
