<?xml version="1.0" encoding="utf-8"?>
<!-- Generated by IcoMoon.io -->
<!DOCTYPE svg PUBLIC "-//W3C//DTD SVG 1.1//EN" "http://www.w3.org/Graphics/SVG/1.1/DTD/svg11.dtd">
<svg version="1.1" xmlns="http://www.w3.org/2000/svg" xmlns:xlink="http://www.w3.org/1999/xlink" width="16" height="16" viewBox="0 0 16 16">
<g id="icomoon-ignore">
	<line stroke-width="1" x1="" y1="" x2="" y2="" stroke="#449FDB" opacity=""></line>
</g>
	<path d="M0 4.818l0.65 0.852c0 0 1.34-1.056 1.787-0.528s2.152 6.906 2.721 8.082c0.497 1.032 1.867 2.396 3.371 1.422s6.497-5.239 7.392-10.275c0.893-5.035-6.011-3.98-6.743 0.406 1.828-1.097 2.804 0.446 1.868 2.193-0.934 1.746-1.787 2.884-2.234 2.884s-0.789-1.168-1.3-3.21c-0.528-2.111-0.525-5.913-2.721-5.482-2.071 0.406-4.792 3.656-4.792 3.656z" fill="#000000"></path>
</svg>
