<?xml version="1.0" encoding="utf-8"?>
<!-- Generated by IcoMoon.io -->
<!DOCTYPE svg PUBLIC "-//W3C//DTD SVG 1.1//EN" "http://www.w3.org/Graphics/SVG/1.1/DTD/svg11.dtd">
<svg version="1.1" xmlns="http://www.w3.org/2000/svg" xmlns:xlink="http://www.w3.org/1999/xlink" width="16" height="16" viewBox="0 0 16 16">
<g id="icomoon-ignore">
	<line stroke-width="1" x1="" y1="" x2="" y2="" stroke="#449FDB" opacity=""></line>
</g>
	<path d="M8 2.48l-5.388 11.52h10.776l-5.388-11.52zM8 0v0c0.345 0 0.69 0.233 0.951 0.698l6.829 13.611c0.523 0.93 0.078 1.691-0.989 1.691h-13.583c-1.067 0-1.512-0.761-0.989-1.691l6.829-13.611c0.262-0.465 0.606-0.698 0.951-0.698zM7 12c0-0.552 0.448-1 1-1s1 0.448 1 1c0 0.552-0.448 1-1 1s-1-0.448-1-1zM8 6c0.552 0 1 0.448 1 1l-0.313 3h-1.375l-0.313-3c0-0.552 0.448-1 1-1z" fill="#000000"></path>
</svg>
