<?xml version="1.0" encoding="utf-8"?>
<!-- Generated by IcoMoon.io -->
<!DOCTYPE svg PUBLIC "-//W3C//DTD SVG 1.1//EN" "http://www.w3.org/Graphics/SVG/1.1/DTD/svg11.dtd">
<svg version="1.1" xmlns="http://www.w3.org/2000/svg" xmlns:xlink="http://www.w3.org/1999/xlink" width="16" height="16" viewBox="0 0 16 16">
<g id="icomoon-ignore">
	<line stroke-width="1" x1="" y1="" x2="" y2="" stroke="#449FDB" opacity=""></line>
</g>
	<path d="M8.105 8.511l1.844 4.921c0.012 0.029 0.027 0.055 0.043 0.081-0.624 0.214-1.294 0.331-1.992 0.331-0.589 0-1.157-0.084-1.695-0.238l1.8-5.095zM14 8c0 2.156-1.2 4.038-2.983 5.051l1.833-5.16c0.342-0.834 0.456-1.5 0.456-2.093 0-0.215-0.015-0.415-0.040-0.601 0.468 0.832 0.735 1.787 0.735 2.803zM2 8c0-0.847 0.187-1.652 0.52-2.378l2.862 7.637c-2.002-0.947-3.382-2.946-3.382-5.259zM2.987 4.79c1.073-1.586 2.917-2.634 5.013-2.634 1.562 0 2.984 0.582 4.052 1.534-0.026-0.002-0.051-0.005-0.078-0.005-0.589 0-1.008 0.5-1.008 1.037 0 0.482 0.285 0.889 0.589 1.371 0.228 0.389 0.495 0.889 0.495 1.612 0 0.5-0.197 1.080-0.457 1.889l-0.599 1.947-2.168-6.282c0.361-0.018 0.687-0.055 0.687-0.055 0.323-0.037 0.285-0.5-0.038-0.482 0 0-0.972 0.074-1.599 0.074-0.59 0-1.58-0.074-1.58-0.074-0.324-0.018-0.362 0.463-0.038 0.482 0 0 0.306 0.037 0.629 0.055l0.935 2.495-1.313 3.835-2.185-6.33c0.362-0.018 0.687-0.055 0.687-0.055 0.323-0.037 0.285-0.5-0.038-0.482 0 0-0.972 0.074-1.599 0.074-0.113 0-0.245-0.003-0.386-0.007zM13.313 0h-10.625c-1.478 0-2.688 1.209-2.688 2.688v10.625c0 1.478 1.209 2.688 2.688 2.688h10.625c1.478 0 2.688-1.209 2.688-2.688v-10.625c0-1.478-1.209-2.688-2.688-2.688zM15 8c0 3.866-3.134 7-7 7s-7-3.134-7-7 3.134-7 7-7 7 3.134 7 7z" fill="#000000"></path>
</svg>
