<?xml version="1.0" encoding="utf-8"?>
<!-- Generated by IcoMoon.io -->
<!DOCTYPE svg PUBLIC "-//W3C//DTD SVG 1.1//EN" "http://www.w3.org/Graphics/SVG/1.1/DTD/svg11.dtd">
<svg version="1.1" xmlns="http://www.w3.org/2000/svg" xmlns:xlink="http://www.w3.org/1999/xlink" width="16" height="16" viewBox="0 0 16 16">
<g id="icomoon-ignore">
	<line stroke-width="1" x1="" y1="" x2="" y2="" stroke="#449FDB" opacity=""></line>
</g>
	<path d="M13.333 0h-10.666c-1.467 0-2.667 1.2-2.667 2.667v10.666c0 1.468 1.2 2.667 2.667 2.667h10.666c1.467 0 2.667-1.199 2.667-2.667v-10.666c0-1.467-1.2-2.667-2.667-2.667zM4.872 10.419h-1.739c-0.105 0-0.183-0.047-0.227-0.118-0.046-0.074-0.048-0.171 0-0.267l1.847-3.26c0.002-0.004 0.002-0.006 0-0.010l-1.175-2.035c-0.049-0.097-0.056-0.192-0.010-0.267 0.044-0.072 0.132-0.109 0.237-0.109h1.738c0.267 0 0.397 0.172 0.484 0.326 0 0 1.188 2.073 1.195 2.084-0.070 0.124-1.877 3.319-1.877 3.319-0.089 0.16-0.214 0.336-0.474 0.336zM13.092 2.352l-3.849 6.806c-0.002 0.004-0.002 0.008 0 0.011l2.451 4.478c0.049 0.096 0.050 0.194 0.004 0.269-0.044 0.072-0.126 0.111-0.231 0.111h-1.737c-0.266 0-0.399-0.177-0.486-0.331 0 0-2.464-4.52-2.47-4.532 0.123-0.218 3.869-6.86 3.869-6.86 0.093-0.168 0.206-0.331 0.465-0.331h1.756c0.105 0 0.187 0.040 0.231 0.111 0.046 0.074 0.045 0.172-0.004 0.268z" fill="#000000"></path>
</svg>
