<?xml version="1.0" encoding="utf-8"?>
<!-- Generated by IcoMoon.io -->
<!DOCTYPE svg PUBLIC "-//W3C//DTD SVG 1.1//EN" "http://www.w3.org/Graphics/SVG/1.1/DTD/svg11.dtd">
<svg version="1.1" xmlns="http://www.w3.org/2000/svg" xmlns:xlink="http://www.w3.org/1999/xlink" width="16" height="16" viewBox="0 0 16 16">
<g id="icomoon-ignore">
	<line stroke-width="1" x1="" y1="" x2="" y2="" stroke="#449FDB" opacity=""></line>
</g>
	<path d="M8 0c-4.418 0-8 3.582-8 8s3.582 8 8 8 8-3.582 8-8-3.582-8-8-8zM5.398 10.006h-1.446c-0.087 0-0.152-0.039-0.189-0.098-0.038-0.062-0.040-0.142 0-0.221l1.536-2.704c0.002-0.003 0.002-0.005 0-0.008l-0.978-1.688c-0.040-0.080-0.046-0.16-0.008-0.221 0.037-0.060 0.11-0.090 0.197-0.090h1.446c0.222 0 0.331 0.143 0.403 0.27 0 0 0.988 1.72 0.994 1.729-0.059 0.103-1.561 2.753-1.561 2.753-0.074 0.133-0.178 0.279-0.394 0.279zM12.235 3.315l-3.201 5.646c-0.002 0.003-0.002 0.007 0 0.010l2.038 3.715c0.040 0.080 0.041 0.161 0.003 0.223-0.037 0.059-0.105 0.092-0.192 0.092h-1.444c-0.222 0-0.332-0.147-0.404-0.275 0 0-2.049-3.75-2.054-3.76 0.103-0.181 3.217-5.691 3.217-5.691 0.078-0.139 0.171-0.275 0.387-0.275h1.461c0.087 0 0.156 0.033 0.192 0.092 0.038 0.062 0.037 0.143-0.003 0.223z" fill="#000000"></path>
</svg>
