<?xml version="1.0" encoding="utf-8"?>
<!-- Generated by IcoMoon.io -->
<!DOCTYPE svg PUBLIC "-//W3C//DTD SVG 1.1//EN" "http://www.w3.org/Graphics/SVG/1.1/DTD/svg11.dtd">
<svg version="1.1" xmlns="http://www.w3.org/2000/svg" xmlns:xlink="http://www.w3.org/1999/xlink" width="16" height="16" viewBox="0 0 16 16">
<g id="icomoon-ignore">
	<line stroke-width="1" x1="" y1="" x2="" y2="" stroke="#449FDB" opacity=""></line>
</g>
	<path d="M13.25 10l-0.232-6.5c-0.010-0.275 0.207-0.5 0.482-0.5h2c0.275 0 0.46 0.221 0.412 0.492l-1.162 6.508zM15 12.125c0 0.481-0.394 0.875-0.875 0.875h-0.25c-0.481 0-0.875-0.394-0.875-0.875v-0.25c0-0.481 0.394-0.875 0.875-0.875h0.25c0.481 0 0.875 0.394 0.875 0.875v0.25zM6 3c-3.314 0-6 2.239-6 5s2.686 5 6 5c3.314 0 6-2.239 6-5s-2.686-5-6-5zM10 7h-1.16l-1.84 1.84v1.16h1.5v1h-4v-1h1.5v-1.16l-2.84-2.84h-0.657v-1h2.994v1h-0.657l1.66 1.66 0.5-0.5v-1.16h3v1z" fill="#000000"></path>
</svg>
