<?xml version="1.0" encoding="utf-8"?>
<!-- Generated by IcoMoon.io -->
<!DOCTYPE svg PUBLIC "-//W3C//DTD SVG 1.1//EN" "http://www.w3.org/Graphics/SVG/1.1/DTD/svg11.dtd">
<svg version="1.1" xmlns="http://www.w3.org/2000/svg" xmlns:xlink="http://www.w3.org/1999/xlink" width="16" height="16" viewBox="0 0 16 16">
<g id="icomoon-ignore">
	<line stroke-width="1" x1="" y1="" x2="" y2="" stroke="#449FDB" opacity=""></line>
</g>
	<path d="M13 2h-10c-1.65 0-3 1.35-3 3v6c0 1.65 1.35 3 3 3h10c1.65 0 3-1.35 3-3v-6c0-1.65-1.35-3-3-3zM15 11c0 0.531-0.209 1.032-0.588 1.412s-0.881 0.588-1.412 0.588h-10c-0.531 0-1.032-0.209-1.412-0.588s-0.588-0.881-0.588-1.412v-6c0-0.531 0.209-1.032 0.588-1.412s0.881-0.588 1.412-0.588h10c0.531 0 1.032 0.209 1.412 0.588s0.588 0.881 0.588 1.412v6zM6 12l5-4-5-4z" fill="#000000"></path>
</svg>
